<?xml version="1.0" encoding="UTF-8" standalone="no"?> <svg id="Layer_1" data-name="Layer 1" xmlns="http://www.w3.org/2000/svg" viewBox="0 0 128 128"><defs><style>.cls-1{fill:#2d3e50;}</style></defs><title>n</title><path class="cls-1" d="M95.92453,68.52831a6.8347,6.8347,0,0,0-.61829,8.9211,2.91092,2.91092,0,0,0,4.45172.3062,6.795,6.795,0,0,0,.90389-8.52656A2.903,2.903,0,0,0,95.92453,68.52831Z"/><path class="cls-1" d="M67.1562,50.40934a6.69613,6.69613,0,0,0-.35037,8.89166,2.78265,2.78265,0,0,0,4.25151.22966,6.87177,6.87177,0,0,0,.87738-8.718C70.53915,48.9961,68.81677,48.84006,67.1562,50.40934Z"/><path class="cls-1" d="M118.2882,24.28147H9.71443a6.16608,6.16608,0,0,0-6.15967,6.157V48.90441a5.05983,5.05983,0,0,0,2.34979,4.28872A12.63413,12.63413,0,0,1,11.94645,64a12.64174,12.64174,0,0,1-6.0419,10.80949,5.052,5.052,0,0,0-2.34979,4.28612V97.56151a6.16606,6.16606,0,0,0,6.15967,6.157H118.2882a6.16382,6.16382,0,0,0,6.157-6.157v-67.123A6.16384,6.16384,0,0,0,118.2882,24.28147Zm-75.69,67.58092a1.96251,1.96251,0,1,1-3.925,0V87.66524a1.96251,1.96251,0,1,1,3.925,0Zm0-16.97962a1.96251,1.96251,0,1,1-3.925,0V70.68824a1.96251,1.96251,0,1,1,3.925,0Zm0-16.977a1.96251,1.96251,0,0,1-3.925,0V53.71124a1.96251,1.96251,0,0,1,3.925,0Zm0-16.9796a1.96251,1.96251,0,1,1-3.925,0V36.73162a1.96251,1.96251,0,0,1,3.925,0ZM62.4719,61.53863a11.77141,11.77141,0,0,1,.898-14.09416,7.69623,7.69623,0,0,1,12.02434.07655c3.98947,4.91986,3.01786,12.64559-2.03447,16.214A7.67071,7.67071,0,0,1,62.4719,61.53863ZM75.80349,81.10912c-.98044,1.5634-1.36025,1.65172-2.92954.68895-2.50262-1.56045-2.51734-1.56928-.98337-4.0189Q81.6287,62.2379,91.38744,46.70548c.82439-1.32492,1.28664-1.41621,2.58507-.6242.6389.371,1.25424.7508,1.83427,1.11294a1.64392,1.64392,0,0,1-.08538,2.14048Q92.21918,54.917,88.70817,60.514,82.247,70.80863,75.80349,81.10912Zm26.20094.88622A7.46219,7.46219,0,0,1,91.80552,80.5821c-4.30745-4.914-3.13857-13.29333,2.29064-16.62328a7.44867,7.44867,0,0,1,9.44224,1.3043C108.03426,70.0711,107.29527,78.262,102.00443,81.99534Z"/></svg>