<svg id="svg" version="1.1" xmlns="http://www.w3.org/2000/svg" xmlns:xlink="http://www.w3.org/1999/xlink" width="400" height="400" viewBox="0, 0, 400,400"><g id="svgg"><path id="path0" d="M196.600 35.324 C 180.092 36.131,165.410 41.903,153.897 52.113 L 152.294 53.535 148.097 53.660 C 132.811 54.118,119.348 59.102,107.231 68.790 C 79.121 91.264,75.191 130.708,99.000 151.404 C 108.822 159.942,125.001 166.189,137.315 166.198 L 139.530 166.200 140.767 168.276 C 146.686 178.213,149.562 194.310,147.918 208.300 C 147.361 213.034,147.096 214.854,146.607 217.289 C 145.839 221.114,145.338 224.205,145.465 224.331 C 145.522 224.389,148.029 223.625,151.035 222.633 C 169.186 216.645,185.913 213.550,200.100 213.555 C 214.090 213.559,230.690 216.628,248.607 222.522 C 251.746 223.555,254.409 224.400,254.524 224.400 C 254.656 224.400,254.557 223.456,254.258 221.850 C 253.996 220.447,253.522 217.905,253.203 216.200 C 250.815 203.433,251.536 187.723,254.974 177.600 C 256.261 173.810,256.978 172.254,259.185 168.450 L 260.490 166.200 262.495 166.198 C 272.307 166.189,286.049 161.813,295.203 155.782 C 312.373 144.472,319.669 126.049,315.400 104.782 C 309.615 75.963,281.306 53.625,250.540 53.602 L 247.780 53.600 246.140 52.146 C 232.996 40.489,215.119 34.418,196.600 35.324 M206.994 41.823 C 226.998 43.452,245.423 55.447,255.644 73.495 C 257.122 76.106,257.195 76.095,256.600 73.347 C 255.625 68.846,253.372 63.939,250.863 60.849 C 249.969 59.748,250.091 59.703,253.443 59.880 C 279.885 61.276,303.698 80.570,309.084 104.964 C 314.844 131.050,301.159 151.511,273.300 158.467 C 261.675 161.369,250.319 160.078,239.268 154.599 C 237.749 153.845,236.469 153.264,236.425 153.308 C 236.222 153.512,242.106 159.049,243.800 160.248 C 245.986 161.795,249.755 163.711,252.150 164.494 C 253.058 164.790,253.800 165.055,253.800 165.082 C 253.800 165.110,253.140 166.430,252.333 168.016 C 246.364 179.755,244.231 195.520,246.320 212.465 C 246.700 215.550,246.820 215.398,244.548 214.715 C 220.570 207.505,199.210 205.646,179.831 209.084 C 178.329 209.351,176.695 209.630,176.200 209.706 C 172.410 210.285,161.066 213.019,156.275 214.508 C 153.348 215.418,153.324 215.417,153.474 214.350 C 155.910 197.020,153.697 179.511,147.598 167.855 C 146.052 164.899,146.054 164.976,147.500 164.596 C 150.438 163.824,154.658 161.511,158.127 158.771 C 159.292 157.851,163.686 153.419,163.559 153.292 C 163.526 153.259,162.181 153.882,160.571 154.675 C 152.017 158.890,141.957 160.851,134.200 159.816 C 130.148 159.276,129.301 159.124,126.700 158.471 C 106.290 153.348,93.917 141.702,90.287 124.200 C 89.419 120.015,89.479 111.819,90.411 107.400 C 90.632 106.355,90.908 105.005,91.025 104.400 C 94.572 86.104,112.443 68.120,132.992 62.169 C 139.419 60.308,151.863 58.901,149.616 60.290 C 148.917 60.722,146.451 64.823,145.425 67.262 C 144.300 69.934,142.966 74.621,143.004 75.768 C 143.007 75.840,143.289 75.405,143.631 74.800 C 157.112 50.967,179.053 39.548,206.994 41.823 M161.817 141.964 C 168.220 153.822,188.600 164.230,202.680 162.833 C 216.423 161.470,231.051 153.225,237.482 143.216 C 239.112 140.680,239.002 140.530,236.964 142.512 C 228.322 150.912,218.209 155.993,206.500 157.817 C 204.442 158.138,195.405 158.138,193.500 157.817 C 181.530 155.801,171.703 150.898,163.217 142.710 L 161.135 140.700 161.817 141.964 M92.100 224.933 C 79.240 226.505,72.194 239.956,77.398 253.000 C 85.840 274.162,109.481 286.133,139.806 284.602 C 158.347 283.666,179.822 275.933,197.829 263.707 L 199.964 262.257 202.532 263.964 C 221.018 276.251,241.750 283.671,260.194 284.602 C 290.400 286.127,314.227 274.098,322.593 253.100 C 325.792 245.071,324.356 236.238,318.875 230.233 C 310.750 221.331,294.477 223.832,288.674 234.876 L 287.940 236.272 288.999 235.257 C 294.610 229.876,304.487 232.253,307.887 239.803 C 310.486 245.572,304.351 254.006,295.753 256.482 C 286.205 259.232,275.788 257.731,261.500 251.544 C 250.320 246.704,246.815 245.367,242.000 244.107 C 229.614 240.865,213.703 243.866,201.650 251.716 L 200.000 252.791 198.294 251.679 C 186.309 243.867,170.387 240.875,158.007 244.109 C 152.859 245.453,150.191 246.473,138.300 251.642 C 123.949 257.881,112.752 259.337,103.329 256.189 C 94.796 253.338,89.382 244.892,92.427 239.180 C 96.157 232.181,104.983 230.124,110.624 234.939 C 111.955 236.075,112.017 235.946,110.964 234.226 C 106.983 227.720,99.492 224.030,92.100 224.933 M152.645 318.624 C 150.534 319.668,150.184 322.541,151.982 324.054 C 154.317 326.019,157.610 324.335,157.359 321.304 C 157.158 318.881,154.815 317.549,152.645 318.624 M184.677 318.583 C 181.777 319.900,182.175 324.095,185.265 324.792 C 188.286 325.474,190.548 321.927,188.600 319.564 C 187.507 318.237,186.173 317.903,184.677 318.583 M132.200 318.885 C 123.832 320.646,119.277 330.158,123.094 337.900 C 129.339 350.564,148.184 346.224,148.279 332.100 C 148.337 323.415,140.659 317.105,132.200 318.885 M160.800 332.000 L 160.800 345.000 164.000 345.000 L 167.200 345.000 167.200 339.700 L 167.200 334.400 169.220 334.400 C 173.027 334.400,173.200 334.673,173.200 340.707 L 173.200 345.000 176.400 345.000 L 179.600 345.000 179.600 340.237 C 179.600 332.678,179.008 331.070,175.906 330.202 L 174.993 329.946 175.989 328.893 C 176.801 328.035,181.200 319.744,181.200 319.072 C 181.200 319.032,179.593 319.000,177.629 319.000 L 174.058 319.000 172.714 322.075 C 170.679 326.730,169.660 327.998,167.950 327.999 L 167.200 328.000 167.200 323.500 L 167.200 319.000 164.000 319.000 L 160.800 319.000 160.800 332.000 M220.400 332.000 L 220.400 345.000 223.189 345.000 L 225.977 345.000 226.039 339.341 C 226.107 333.077,226.120 333.009,227.461 332.191 C 228.637 331.474,230.282 331.868,230.995 333.038 C 231.375 333.661,231.399 334.036,231.399 339.350 L 231.400 345.000 234.300 345.000 L 237.200 345.000 237.193 339.550 C 237.185 333.532,236.984 331.745,236.124 330.047 C 234.308 326.463,230.589 325.255,227.094 327.113 C 226.591 327.381,226.139 327.600,226.089 327.600 C 226.040 327.600,226.000 325.665,226.000 323.300 L 226.000 319.000 223.200 319.000 L 220.400 319.000 220.400 332.000 M192.254 322.346 C 191.962 323.110,192.351 339.339,192.686 340.381 C 193.724 343.606,195.585 344.745,200.150 344.946 L 202.600 345.054 202.600 342.327 L 202.600 339.600 200.822 339.600 C 198.080 339.600,198.115 339.652,198.037 335.418 L 197.974 332.000 200.287 332.000 L 202.600 332.000 202.600 329.300 L 202.600 326.600 200.300 326.600 L 198.000 326.600 198.000 324.411 L 198.000 322.221 195.174 322.161 C 193.074 322.116,192.324 322.163,192.254 322.346 M137.969 325.577 C 144.365 328.895,142.211 338.900,135.100 338.900 C 127.698 338.900,125.643 328.704,132.400 325.502 C 133.850 324.814,136.570 324.851,137.969 325.577 M267.400 326.487 C 262.369 327.648,261.000 330.418,261.000 339.442 L 261.000 345.000 263.789 345.000 L 266.577 345.000 266.639 339.314 C 266.697 333.930,266.722 333.598,267.114 333.064 C 268.349 331.382,270.778 331.480,271.746 333.252 C 272.056 333.819,272.108 334.595,272.164 339.450 L 272.228 345.000 275.014 345.000 L 277.800 345.000 277.800 339.527 C 277.800 336.517,277.709 333.576,277.598 332.992 C 276.721 328.364,272.085 325.407,267.400 326.487 M246.000 326.799 C 240.225 328.927,237.966 335.912,241.370 341.114 C 245.328 347.163,254.228 346.601,258.045 340.063 C 259.188 338.104,259.267 338.298,256.857 337.161 L 254.715 336.151 254.407 336.625 C 251.284 341.446,245.309 340.575,245.311 335.300 C 245.313 332.075,247.924 330.027,250.770 331.020 C 251.518 331.280,251.549 331.411,250.950 331.782 C 250.703 331.935,249.624 332.679,248.553 333.436 L 246.607 334.813 247.653 336.402 C 248.229 337.276,248.763 337.993,248.841 337.995 C 249.061 338.003,257.492 332.207,257.565 331.998 C 257.680 331.666,256.191 329.629,255.132 328.672 C 252.793 326.558,248.849 325.749,246.000 326.799 M151.200 335.800 L 151.200 345.000 154.100 345.000 L 157.000 345.000 157.000 335.800 L 157.000 326.600 154.100 326.600 L 151.200 326.600 151.200 335.800 M183.139 326.728 C 183.062 326.804,183.000 330.947,183.000 335.933 L 183.000 345.000 186.002 345.000 L 189.004 345.000 188.952 335.850 L 188.900 326.700 186.089 326.645 C 184.542 326.614,183.215 326.652,183.139 326.728 M212.606 326.906 C 202.933 328.656,201.925 341.194,211.200 344.385 C 212.181 344.723,213.150 344.860,215.150 344.944 L 217.800 345.057 217.800 342.228 L 217.800 339.400 215.949 339.400 C 211.971 339.400,210.101 337.760,210.820 334.904 C 211.283 333.065,212.916 332.200,215.925 332.200 L 217.800 332.200 217.800 329.400 L 217.800 326.600 215.950 326.618 C 214.933 326.628,213.428 326.758,212.606 326.906 " stroke="none" fill="#053545" fill-rule="evenodd"></path><path id="path1" d="M0.000 200.000 L 0.000 400.000 200.000 400.000 L 400.000 400.000 400.000 200.000 L 400.000 0.000 200.000 0.000 L 0.000 0.000 0.000 200.000 M204.100 35.205 C 207.926 35.448,212.819 36.072,215.300 36.631 C 216.290 36.854,217.675 37.165,218.379 37.321 C 227.711 39.397,239.295 45.568,246.661 52.389 L 247.854 53.493 251.510 53.533 C 287.223 53.929,317.839 84.005,316.729 117.600 C 316.017 139.132,303.544 154.958,281.100 162.805 C 275.205 164.867,267.435 166.388,262.756 166.396 L 260.612 166.400 259.872 167.550 C 253.691 177.145,250.846 192.109,252.220 207.800 C 252.547 211.540,253.155 215.308,254.798 223.797 C 254.894 224.291,254.956 224.708,254.936 224.725 C 254.916 224.741,252.497 223.964,249.560 222.997 C 234.399 218.008,219.459 214.780,207.900 213.997 C 191.000 212.851,173.202 215.612,151.021 222.820 C 148.007 223.799,145.464 224.600,145.371 224.600 C 145.075 224.600,145.183 223.589,145.800 220.600 C 150.187 199.329,148.115 179.949,140.128 167.550 L 139.388 166.400 137.108 166.400 C 128.569 166.400,115.074 162.320,106.700 157.206 C 88.845 146.303,81.116 129.549,83.908 107.800 C 87.036 83.435,108.671 61.069,134.900 55.083 C 139.600 54.011,147.658 53.221,150.747 53.530 L 151.994 53.655 153.350 52.377 C 160.267 45.866,172.539 39.327,181.600 37.324 C 182.315 37.166,183.710 36.853,184.700 36.629 C 188.006 35.879,194.791 35.161,199.800 35.030 C 200.405 35.014,202.340 35.093,204.100 35.205 M197.900 41.738 C 177.988 44.319,161.108 65.449,157.702 92.060 C 154.403 117.833,173.073 144.224,198.600 149.874 C 207.365 151.813,222.765 151.425,228.268 149.126 C 230.030 148.390,235.043 144.368,237.876 141.418 C 239.488 139.739,239.621 139.724,238.780 141.318 C 232.954 152.346,216.270 162.203,202.000 163.047 L 201.100 163.100 200.669 166.100 C 198.570 180.706,199.015 197.355,201.738 206.122 L 202.056 207.145 204.778 207.280 C 208.603 207.471,213.940 207.947,216.300 208.309 C 217.400 208.478,219.200 208.752,220.300 208.919 C 225.764 209.750,238.524 212.666,243.800 214.291 C 245.065 214.680,246.197 214.999,246.317 214.999 C 246.465 215.000,246.421 214.223,246.178 212.550 C 243.801 196.156,247.050 174.711,253.238 165.951 C 253.697 165.301,253.603 165.076,252.797 164.899 C 248.198 163.889,241.151 159.085,236.875 154.044 C 235.479 152.399,235.526 152.383,237.914 153.704 C 245.760 158.044,256.916 160.609,264.500 159.818 C 285.995 157.574,303.133 145.686,308.206 129.500 C 315.478 106.299,302.661 79.443,278.300 66.840 C 270.375 62.740,262.039 60.509,253.041 60.078 L 250.300 59.947 250.829 60.523 C 253.622 63.566,257.199 72.227,257.200 75.949 C 257.200 76.793,257.193 76.785,256.079 74.649 C 247.034 57.309,229.106 44.805,209.700 42.300 C 205.620 41.774,199.772 41.495,197.900 41.738 M145.400 60.137 C 135.534 60.878,126.223 63.912,117.800 69.130 C 114.000 71.484,114.322 71.123,114.486 72.842 C 116.028 89.024,134.934 93.051,141.923 78.685 C 142.414 77.675,142.794 76.770,142.767 76.674 C 142.114 74.347,145.899 64.716,149.010 60.787 L 149.634 60.000 147.967 60.035 C 147.050 60.054,145.895 60.100,145.400 60.137 M96.420 224.800 C 103.028 225.558,108.729 229.412,111.671 235.113 C 112.673 237.054,112.605 237.102,111.016 235.574 C 105.425 230.201,96.371 232.055,92.534 239.360 C 89.222 245.667,96.027 254.481,105.923 256.701 C 116.178 259.002,124.087 257.540,141.268 250.169 C 155.695 243.979,160.590 242.604,168.201 242.601 C 178.887 242.597,190.529 246.147,199.150 252.038 L 200.000 252.619 200.850 252.035 C 209.353 246.191,221.162 242.592,231.799 242.604 C 238.508 242.611,244.229 244.047,254.100 248.200 C 255.200 248.663,256.595 249.248,257.200 249.500 C 257.805 249.753,259.155 250.337,260.200 250.800 C 278.480 258.886,292.061 259.837,301.402 253.686 C 305.461 251.012,307.528 247.714,308.268 242.726 C 308.547 240.847,307.104 238.084,304.644 235.786 C 299.929 231.383,293.606 231.277,289.018 235.525 C 288.238 236.247,287.600 236.781,287.600 236.713 C 287.600 236.645,287.882 236.029,288.227 235.344 C 294.973 221.965,314.444 220.884,321.441 233.500 C 326.040 241.793,325.501 249.490,319.624 259.440 C 304.738 284.643,264.400 292.326,227.051 277.073 C 217.987 273.371,206.044 266.980,200.881 263.069 C 200.068 262.453,199.824 262.475,198.779 263.260 C 189.831 269.983,172.536 278.050,159.500 281.580 C 135.654 288.037,110.074 284.945,93.810 273.638 C 82.852 266.021,74.816 252.885,75.495 243.700 C 76.408 231.335,85.082 223.501,96.420 224.800 M155.463 318.424 C 159.081 320.279,157.499 325.547,153.515 324.910 C 150.283 324.393,149.759 319.637,152.800 318.425 C 153.484 318.152,154.932 318.152,155.463 318.424 M187.591 318.595 C 188.675 319.148,189.254 320.041,189.360 321.323 C 189.657 324.905,184.807 326.372,183.042 323.233 C 181.406 320.321,184.597 317.068,187.591 318.595 M138.700 318.960 C 152.363 323.172,151.318 342.669,137.287 345.310 C 125.742 347.482,117.314 334.065,124.048 324.234 C 127.126 319.741,133.634 317.398,138.700 318.960 M167.246 323.450 L 167.300 327.900 167.906 327.959 C 169.386 328.104,170.566 326.668,172.489 322.384 L 173.963 319.100 177.596 319.045 C 181.205 318.991,181.229 318.994,181.097 319.410 C 180.556 321.114,176.872 328.127,176.087 328.946 C 175.101 329.975,175.086 330.000,175.475 330.000 C 176.105 330.000,177.600 330.851,178.267 331.590 C 179.486 332.940,179.654 333.926,179.679 339.899 L 179.700 345.100 176.500 345.100 L 173.300 345.100 173.197 340.700 C 173.056 334.660,172.888 334.400,169.106 334.400 L 167.200 334.400 167.200 339.805 L 167.200 345.210 163.950 345.155 L 160.700 345.100 160.649 332.050 L 160.597 319.000 163.895 319.000 L 167.192 319.000 167.246 323.450 M226.200 323.331 C 226.200 327.434,226.218 327.647,226.550 327.369 C 228.606 325.644,232.749 325.949,234.773 327.973 C 236.887 330.087,237.220 331.647,237.153 339.140 L 237.100 345.100 234.300 345.100 L 231.500 345.100 231.400 339.400 C 231.345 336.265,231.219 333.565,231.120 333.400 C 230.336 332.091,229.094 331.606,227.826 332.113 C 226.325 332.714,226.313 332.766,226.200 339.300 L 226.100 345.100 223.200 345.100 L 220.300 345.100 220.249 332.050 L 220.197 319.000 223.199 319.000 L 226.200 319.000 226.200 323.331 M198.200 324.300 L 198.200 326.600 200.389 326.600 L 202.578 326.600 202.639 329.300 L 202.700 332.001 200.450 332.000 L 198.200 332.000 198.203 335.350 C 198.207 339.589,198.214 339.600,200.987 339.600 L 202.600 339.600 202.600 342.427 L 202.600 345.254 200.264 345.111 C 192.929 344.659,192.204 343.304,192.202 330.050 L 192.200 322.000 195.200 322.000 L 198.200 322.000 198.200 324.300 M133.060 325.360 C 126.444 327.724,127.029 337.416,133.871 338.800 C 138.937 339.825,143.109 334.447,141.202 329.350 C 139.974 326.068,136.223 324.230,133.060 325.360 M251.264 326.499 C 253.674 327.127,255.455 328.427,256.916 330.624 C 257.427 331.393,257.812 332.048,257.773 332.081 C 257.706 332.136,251.962 336.068,249.759 337.567 L 248.817 338.207 247.802 336.703 C 247.244 335.876,246.743 335.084,246.689 334.943 C 246.629 334.787,247.493 334.063,248.894 333.094 C 251.457 331.321,251.452 331.327,250.570 331.020 C 246.401 329.566,243.446 335.740,246.871 338.748 C 249.036 340.649,252.773 339.553,254.319 336.564 L 254.606 336.008 255.653 336.476 C 259.370 338.139,259.299 338.045,258.266 339.917 C 254.312 347.084,244.187 347.189,240.693 340.100 C 237.106 332.821,243.576 324.497,251.264 326.499 M272.022 326.607 C 276.936 328.263,278.090 331.043,277.957 340.900 L 277.900 345.100 275.000 345.100 L 272.100 345.100 272.000 339.400 C 271.894 333.355,271.869 333.198,270.874 332.416 C 270.225 331.905,268.801 331.859,268.014 332.323 C 266.922 332.968,266.908 333.052,266.800 339.300 L 266.700 345.100 263.800 345.100 L 260.900 345.100 260.846 340.001 C 260.770 332.733,261.229 330.757,263.521 328.486 C 265.665 326.362,269.063 325.611,272.022 326.607 M157.152 335.850 L 157.100 345.100 154.327 345.156 C 152.454 345.193,151.465 345.137,151.277 344.981 C 150.982 344.736,150.843 327.024,151.133 326.733 C 151.207 326.660,152.603 326.600,154.235 326.600 L 157.204 326.600 157.152 335.850 M188.952 335.850 L 188.900 345.100 186.000 345.100 L 183.100 345.100 183.048 335.850 L 182.996 326.600 186.000 326.600 L 189.004 326.600 188.952 335.850 M217.800 329.371 L 217.800 332.143 215.709 332.249 C 212.160 332.430,210.900 333.370,210.900 335.835 C 210.900 338.247,212.260 339.240,215.738 339.369 L 217.800 339.445 217.800 342.353 L 217.800 345.261 215.469 345.128 C 208.059 344.705,203.854 340.494,204.805 334.450 C 205.596 329.422,209.331 326.703,215.550 326.627 L 217.800 326.600 217.800 329.371 " stroke="none" fill="#fbfbfb" fill-rule="evenodd"></path><path id="path2" d="M198.952 35.141 C 199.201 35.189,199.561 35.187,199.752 35.137 C 199.944 35.087,199.740 35.048,199.300 35.050 C 198.860 35.053,198.704 35.094,198.952 35.141 M200.650 35.143 C 200.953 35.189,201.447 35.189,201.750 35.143 C 202.053 35.097,201.805 35.060,201.200 35.060 C 200.595 35.060,200.347 35.097,200.650 35.143 M195.200 41.737 C 192.866 41.910,187.516 42.650,185.900 43.022 C 184.910 43.251,183.560 43.561,182.900 43.712 C 170.582 46.527,156.207 56.311,148.796 66.924 C 146.145 70.719,145.770 71.301,144.296 73.900 C 143.859 74.670,143.393 75.547,143.261 75.850 C 143.128 76.153,142.920 76.400,142.798 76.400 C 142.676 76.400,142.634 76.493,142.704 76.607 C 142.775 76.721,142.427 77.649,141.931 78.668 C 134.937 93.045,116.029 89.037,114.486 72.850 C 114.320 71.099,114.486 71.104,112.336 72.789 C 104.896 78.622,100.122 84.282,95.452 92.806 C 88.998 104.587,88.016 121.469,93.108 133.070 C 99.296 147.168,114.316 156.946,134.002 159.692 C 142.580 160.888,154.262 158.290,163.074 153.225 C 164.210 152.572,164.162 152.801,162.845 154.332 C 159.981 157.659,155.894 160.930,152.383 162.703 C 150.482 163.664,147.178 165.000,146.704 165.000 C 146.282 165.000,146.323 165.285,146.869 166.154 C 149.448 170.259,152.223 178.310,153.295 184.800 C 153.576 186.505,153.896 188.440,154.006 189.100 C 154.892 194.427,154.584 210.083,153.502 214.731 L 153.402 215.162 155.051 214.696 C 155.958 214.440,157.465 214.008,158.400 213.737 C 171.968 209.800,188.292 207.200,199.439 207.200 C 200.894 207.200,202.000 207.119,202.000 207.013 C 202.000 206.910,201.903 206.573,201.786 206.263 C 199.099 199.210,198.583 180.444,200.681 166.050 L 201.125 163.000 199.274 163.000 C 186.498 163.000,169.079 153.766,162.677 143.600 C 160.340 139.889,160.290 139.478,162.450 141.729 C 176.858 156.749,198.696 161.903,217.697 154.768 C 221.669 153.277,231.136 148.179,227.900 149.274 C 222.717 151.028,209.354 151.713,202.217 150.590 C 174.725 146.264,154.216 119.298,157.702 92.060 C 161.108 65.449,177.988 44.319,197.900 41.738 C 198.626 41.644,196.464 41.643,195.200 41.737 M148.754 53.545 C 149.113 53.589,149.653 53.589,149.954 53.543 C 150.254 53.497,149.960 53.461,149.300 53.462 C 148.640 53.463,148.394 53.500,148.754 53.545 M250.150 53.545 C 250.507 53.589,251.093 53.589,251.450 53.545 C 251.808 53.500,251.515 53.464,250.800 53.464 C 250.085 53.464,249.793 53.500,250.150 53.545 M316.657 113.900 C 316.659 114.450,316.698 114.651,316.744 114.347 C 316.789 114.043,316.788 113.593,316.741 113.347 C 316.693 113.101,316.656 113.350,316.657 113.900 M83.250 114.900 C 83.253 115.340,83.294 115.496,83.341 115.248 C 83.389 114.999,83.387 114.639,83.337 114.448 C 83.287 114.256,83.248 114.460,83.250 114.900 M303.091 149.650 L 302.300 150.500 303.150 149.709 C 303.940 148.974,304.092 148.800,303.941 148.800 C 303.908 148.800,303.525 149.183,303.091 149.650 M245.464 195.400 C 245.464 196.115,245.500 196.408,245.545 196.050 C 245.589 195.692,245.589 195.108,245.545 194.750 C 245.500 194.393,245.464 194.685,245.464 195.400 M148.072 198.200 C 148.072 199.245,148.106 199.673,148.147 199.150 C 148.188 198.628,148.188 197.773,148.147 197.250 C 148.106 196.728,148.072 197.155,148.072 198.200 M148.073 202.100 C 148.074 203.200,148.107 203.624,148.148 203.043 C 148.188 202.462,148.188 201.562,148.147 201.043 C 148.106 200.524,148.073 201.000,148.073 202.100 M245.457 204.700 C 245.459 205.250,245.498 205.451,245.544 205.147 C 245.589 204.843,245.588 204.393,245.541 204.147 C 245.493 203.901,245.456 204.150,245.457 204.700 M197.550 213.745 C 197.908 213.789,198.493 213.789,198.850 213.745 C 199.208 213.700,198.915 213.664,198.200 213.664 C 197.485 213.664,197.192 213.700,197.550 213.745 M201.146 213.744 C 201.501 213.789,202.131 213.789,202.546 213.746 C 202.960 213.703,202.670 213.667,201.900 213.666 C 201.130 213.665,200.790 213.700,201.146 213.744 M192.750 213.941 C 192.998 213.989,193.403 213.989,193.650 213.941 C 193.898 213.893,193.695 213.854,193.200 213.854 C 192.705 213.854,192.503 213.893,192.750 213.941 M206.550 213.941 C 206.798 213.989,207.203 213.989,207.450 213.941 C 207.697 213.893,207.495 213.854,207.000 213.854 C 206.505 213.854,206.303 213.893,206.550 213.941 M111.200 235.700 C 111.573 236.085,111.923 236.400,111.978 236.400 C 112.033 236.400,111.773 236.085,111.400 235.700 C 111.027 235.315,110.677 235.000,110.622 235.000 C 110.567 235.000,110.827 235.315,111.200 235.700 M94.891 236.050 L 94.100 236.900 94.950 236.109 C 95.740 235.374,95.892 235.200,95.741 235.200 C 95.708 235.200,95.325 235.582,94.891 236.050 M133.650 284.943 C 133.953 284.989,134.447 284.989,134.750 284.943 C 135.053 284.897,134.805 284.860,134.200 284.860 C 133.595 284.860,133.347 284.897,133.650 284.943 M136.754 284.945 C 137.113 284.989,137.653 284.989,137.954 284.943 C 138.254 284.897,137.960 284.861,137.300 284.862 C 136.640 284.863,136.394 284.900,136.754 284.945 M262.154 284.945 C 262.513 284.989,263.053 284.989,263.354 284.943 C 263.654 284.897,263.360 284.861,262.700 284.862 C 262.040 284.863,261.794 284.900,262.154 284.945 M265.250 284.943 C 265.553 284.989,266.048 284.989,266.350 284.943 C 266.653 284.897,266.405 284.860,265.800 284.860 C 265.195 284.860,264.947 284.897,265.250 284.943 M160.694 332.000 C 160.694 339.095,160.719 341.998,160.750 338.450 C 160.781 334.903,160.781 329.098,160.750 325.550 C 160.719 322.003,160.694 324.905,160.694 332.000 M198.076 324.200 C 198.076 325.465,198.108 325.983,198.148 325.350 C 198.187 324.718,198.187 323.683,198.148 323.050 C 198.108 322.418,198.076 322.935,198.076 324.200 M151.092 335.800 C 151.092 340.805,151.118 342.853,151.150 340.350 C 151.182 337.848,151.182 333.753,151.150 331.250 C 151.118 328.748,151.092 330.795,151.092 335.800 M198.080 335.000 C 198.080 336.705,198.111 337.403,198.149 336.550 C 198.186 335.697,198.186 334.303,198.149 333.450 C 198.111 332.598,198.080 333.295,198.080 335.000 M260.846 335.000 C 260.846 335.385,260.888 335.543,260.938 335.350 C 260.988 335.158,260.988 334.843,260.938 334.650 C 260.888 334.457,260.846 334.615,260.846 335.000 M204.646 335.800 C 204.646 336.185,204.688 336.343,204.738 336.150 C 204.788 335.957,204.788 335.643,204.738 335.450 C 204.688 335.257,204.646 335.415,204.646 335.800 M176.500 345.000 L 173.300 345.115 176.438 345.158 C 178.362 345.184,179.624 345.123,179.700 345.000 C 179.768 344.890,179.796 344.819,179.762 344.842 C 179.728 344.866,178.260 344.936,176.500 345.000 M152.750 345.149 C 153.547 345.186,154.853 345.186,155.650 345.149 C 156.447 345.111,155.795 345.079,154.200 345.079 C 152.605 345.079,151.953 345.111,152.750 345.149 M162.350 345.149 C 163.258 345.186,164.743 345.186,165.650 345.149 C 166.558 345.112,165.815 345.081,164.000 345.081 C 162.185 345.081,161.442 345.112,162.350 345.149 M184.550 345.149 C 185.347 345.186,186.653 345.186,187.450 345.149 C 188.248 345.111,187.595 345.079,186.000 345.079 C 184.405 345.079,183.753 345.111,184.550 345.149 M200.546 345.144 C 200.901 345.189,201.531 345.189,201.946 345.146 C 202.360 345.103,202.070 345.067,201.300 345.066 C 200.530 345.065,200.190 345.100,200.546 345.144 M215.555 345.147 C 216.026 345.189,216.746 345.188,217.155 345.145 C 217.565 345.102,217.180 345.068,216.300 345.069 C 215.420 345.069,215.085 345.104,215.555 345.147 M221.750 345.149 C 222.548 345.186,223.853 345.186,224.650 345.149 C 225.447 345.111,224.795 345.079,223.200 345.079 C 221.605 345.079,220.953 345.111,221.750 345.149 M232.841 345.148 C 233.579 345.186,234.839 345.187,235.641 345.149 C 236.444 345.111,235.840 345.079,234.300 345.079 C 232.760 345.079,232.104 345.110,232.841 345.148 M262.350 345.149 C 263.147 345.186,264.453 345.186,265.250 345.149 C 266.048 345.111,265.395 345.079,263.800 345.079 C 262.205 345.079,261.553 345.111,262.350 345.149 M273.550 345.149 C 274.348 345.186,275.653 345.186,276.450 345.149 C 277.248 345.111,276.595 345.079,275.000 345.079 C 273.405 345.079,272.752 345.111,273.550 345.149 " stroke="none" fill="#e3cbbc" fill-rule="evenodd"></path><path id="path3" d="M254.850 60.138 C 255.043 60.188,255.357 60.188,255.550 60.138 C 255.743 60.088,255.585 60.046,255.200 60.046 C 254.815 60.046,254.657 60.088,254.850 60.138 M291.200 75.663 C 291.200 75.697,291.493 75.990,291.850 76.313 L 292.500 76.900 291.913 76.250 C 291.365 75.644,291.200 75.508,291.200 75.663 M104.687 79.650 L 104.100 80.300 104.750 79.713 C 105.108 79.390,105.400 79.097,105.400 79.063 C 105.400 78.908,105.235 79.044,104.687 79.650 M316.673 116.700 C 316.674 117.800,316.707 118.224,316.748 117.643 C 316.788 117.062,316.788 116.162,316.747 115.643 C 316.706 115.124,316.673 115.600,316.673 116.700 M234.287 147.450 L 233.700 148.100 234.350 147.513 C 234.956 146.965,235.092 146.800,234.937 146.800 C 234.903 146.800,234.610 147.093,234.287 147.450 M239.600 156.863 C 239.600 156.897,239.893 157.190,240.250 157.513 L 240.900 158.100 240.313 157.450 C 239.765 156.844,239.600 156.708,239.600 156.863 M135.152 166.341 C 135.401 166.389,135.761 166.387,135.952 166.337 C 136.144 166.287,135.940 166.248,135.500 166.250 C 135.060 166.253,134.904 166.294,135.152 166.341 M263.550 166.341 C 263.798 166.389,264.203 166.389,264.450 166.341 C 264.697 166.293,264.495 166.254,264.000 166.254 C 263.505 166.254,263.303 166.293,263.550 166.341 M154.250 192.700 C 154.253 193.140,154.294 193.296,154.341 193.048 C 154.389 192.799,154.387 192.439,154.337 192.248 C 154.287 192.056,154.248 192.260,154.250 192.700 M154.454 196.800 C 154.454 197.295,154.493 197.498,154.541 197.250 C 154.589 197.003,154.589 196.597,154.541 196.350 C 154.493 196.103,154.454 196.305,154.454 196.800 M245.457 197.500 C 245.459 198.050,245.498 198.251,245.544 197.947 C 245.589 197.643,245.588 197.193,245.541 196.947 C 245.493 196.701,245.456 196.950,245.457 197.500 M154.450 203.100 C 154.453 203.540,154.494 203.696,154.541 203.448 C 154.589 203.199,154.587 202.839,154.537 202.648 C 154.487 202.456,154.448 202.660,154.450 203.100 M245.446 203.200 C 245.446 203.585,245.488 203.743,245.538 203.550 C 245.588 203.358,245.588 203.043,245.538 202.850 C 245.488 202.658,245.446 202.815,245.446 203.200 M154.254 207.400 C 154.254 207.895,154.293 208.097,154.341 207.850 C 154.389 207.603,154.389 207.197,154.341 206.950 C 154.293 206.703,154.254 206.905,154.254 207.400 M245.646 207.400 C 245.646 207.785,245.688 207.943,245.738 207.750 C 245.788 207.558,245.788 207.243,245.738 207.050 C 245.688 206.857,245.646 207.015,245.646 207.400 M195.952 207.341 C 196.201 207.389,196.561 207.387,196.752 207.337 C 196.944 207.287,196.740 207.248,196.300 207.250 C 195.860 207.253,195.704 207.294,195.952 207.341 M189.450 207.738 C 189.643 207.788,189.958 207.788,190.150 207.738 C 190.343 207.688,190.185 207.646,189.800 207.646 C 189.415 207.646,189.258 207.688,189.450 207.738 M195.653 213.744 C 195.957 213.789,196.407 213.788,196.653 213.741 C 196.899 213.693,196.650 213.656,196.100 213.657 C 195.550 213.659,195.349 213.698,195.653 213.744 M203.653 213.744 C 203.957 213.789,204.407 213.788,204.653 213.741 C 204.899 213.693,204.650 213.656,204.100 213.657 C 203.550 213.659,203.349 213.698,203.653 213.744 M318.800 230.100 C 319.173 230.485,319.523 230.800,319.578 230.800 C 319.633 230.800,319.373 230.485,319.000 230.100 C 318.627 229.715,318.277 229.400,318.222 229.400 C 318.167 229.400,318.427 229.715,318.800 230.100 M169.853 242.744 C 170.157 242.789,170.607 242.788,170.853 242.741 C 171.099 242.693,170.850 242.656,170.300 242.657 C 169.750 242.659,169.549 242.698,169.853 242.744 M229.253 242.744 C 229.557 242.789,230.007 242.788,230.253 242.741 C 230.499 242.693,230.250 242.656,229.700 242.657 C 229.150 242.659,228.949 242.698,229.253 242.744 M75.446 244.600 C 75.446 244.985,75.488 245.143,75.538 244.950 C 75.588 244.757,75.588 244.443,75.538 244.250 C 75.488 244.058,75.446 244.215,75.446 244.600 M312.495 268.250 L 311.100 269.700 312.550 268.305 C 313.897 267.010,314.091 266.800,313.945 266.800 C 313.914 266.800,313.262 267.453,312.495 268.250 M226.085 323.300 C 226.085 325.720,226.114 326.683,226.149 325.439 C 226.185 324.195,226.184 322.215,226.149 321.039 C 226.114 319.863,226.085 320.880,226.085 323.300 M157.092 335.900 C 157.092 340.960,157.118 343.001,157.150 340.436 C 157.182 337.871,157.181 333.731,157.150 331.236 C 157.118 328.741,157.092 330.840,157.092 335.900 M226.087 339.800 C 226.087 342.715,226.115 343.908,226.149 342.450 C 226.184 340.993,226.184 338.608,226.149 337.150 C 226.115 335.693,226.087 336.885,226.087 339.800 M260.886 340.300 C 260.886 342.940,260.915 343.992,260.949 342.639 C 260.984 341.285,260.984 339.125,260.949 337.839 C 260.914 336.552,260.886 337.660,260.886 340.300 M277.886 340.300 C 277.886 342.940,277.915 343.992,277.949 342.639 C 277.984 341.285,277.984 339.125,277.949 337.839 C 277.914 336.552,277.886 337.660,277.886 340.300 M179.683 341.100 C 179.684 343.190,179.713 344.018,179.749 342.940 C 179.785 341.861,179.785 340.151,179.749 339.140 C 179.713 338.128,179.683 339.010,179.683 341.100 " stroke="none" fill="#99abb2" fill-rule="evenodd"></path><path id="path4" d="M196.150 35.345 C 196.508 35.389,197.093 35.389,197.450 35.345 C 197.808 35.300,197.515 35.264,196.800 35.264 C 196.085 35.264,195.793 35.300,196.150 35.345 M203.450 35.343 C 203.753 35.389,204.248 35.389,204.550 35.343 C 204.853 35.297,204.605 35.260,204.000 35.260 C 203.395 35.260,203.148 35.297,203.450 35.343 M199.354 41.545 C 199.713 41.589,200.253 41.589,200.554 41.543 C 200.854 41.497,200.560 41.461,199.900 41.462 C 199.240 41.463,198.994 41.500,199.354 41.545 M194.352 41.741 C 194.601 41.789,194.961 41.787,195.152 41.737 C 195.344 41.687,195.140 41.648,194.700 41.650 C 194.260 41.653,194.104 41.694,194.352 41.741 M204.752 41.741 C 205.001 41.789,205.361 41.787,205.552 41.737 C 205.744 41.687,205.540 41.648,205.100 41.650 C 204.660 41.653,204.504 41.694,204.752 41.741 M191.952 41.941 C 192.201 41.989,192.561 41.987,192.752 41.937 C 192.944 41.887,192.740 41.848,192.300 41.850 C 191.860 41.853,191.704 41.894,191.952 41.941 M145.250 53.738 C 145.442 53.788,145.758 53.788,145.950 53.738 C 146.143 53.688,145.985 53.646,145.600 53.646 C 145.215 53.646,145.058 53.688,145.250 53.738 M157.887 56.850 L 157.300 57.500 157.950 56.913 C 158.308 56.590,158.600 56.297,158.600 56.263 C 158.600 56.108,158.435 56.244,157.887 56.850 M154.894 59.650 L 153.700 60.900 154.950 59.706 C 155.638 59.050,156.200 58.487,156.200 58.456 C 156.200 58.308,156.003 58.489,154.894 59.650 M147.757 59.949 C 149.060 59.995,149.573 60.082,149.476 60.239 C 149.392 60.375,149.429 60.406,149.572 60.317 C 150.124 59.976,149.454 59.803,147.738 59.842 L 145.900 59.883 147.757 59.949 M250.309 59.986 C 250.245 60.089,250.299 60.237,250.428 60.317 C 250.571 60.406,250.608 60.375,250.524 60.239 C 250.427 60.082,250.940 59.995,252.243 59.949 L 254.100 59.883 252.262 59.842 C 251.251 59.819,250.372 59.884,250.309 59.986 M152.287 62.450 L 151.700 63.100 152.350 62.513 C 152.708 62.190,153.000 61.897,153.000 61.863 C 153.000 61.708,152.835 61.844,152.287 62.450 M103.091 72.250 L 102.300 73.100 103.150 72.309 C 103.940 71.574,104.092 71.400,103.941 71.400 C 103.908 71.400,103.525 71.783,103.091 72.250 M99.887 75.450 L 99.300 76.100 99.950 75.513 C 100.556 74.965,100.692 74.800,100.537 74.800 C 100.503 74.800,100.210 75.093,99.887 75.450 M106.094 78.050 L 104.900 79.300 106.150 78.106 C 106.838 77.450,107.400 76.887,107.400 76.856 C 107.400 76.708,107.203 76.889,106.094 78.050 M294.100 78.400 C 294.975 79.280,295.736 80.000,295.791 80.000 C 295.846 80.000,295.175 79.280,294.300 78.400 C 293.425 77.520,292.664 76.800,292.609 76.800 C 292.554 76.800,293.225 77.520,294.100 78.400 M103.487 80.850 L 102.900 81.500 103.550 80.913 C 103.908 80.590,104.200 80.297,104.200 80.263 C 104.200 80.108,104.035 80.244,103.487 80.850 M90.046 109.600 C 90.046 109.985,90.088 110.142,90.138 109.950 C 90.188 109.758,90.188 109.442,90.138 109.250 C 90.088 109.058,90.046 109.215,90.046 109.600 M89.854 111.400 C 89.854 111.895,89.893 112.097,89.941 111.850 C 89.989 111.603,89.989 111.197,89.941 110.950 C 89.893 110.703,89.854 110.905,89.854 111.400 M316.446 112.400 C 316.446 112.785,316.488 112.942,316.538 112.750 C 316.588 112.558,316.588 112.243,316.538 112.050 C 316.488 111.858,316.446 112.015,316.446 112.400 M89.679 116.000 C 89.679 117.595,89.711 118.248,89.749 117.450 C 89.786 116.653,89.786 115.347,89.749 114.550 C 89.711 113.753,89.679 114.405,89.679 116.000 M310.260 114.800 C 310.260 115.405,310.297 115.653,310.343 115.350 C 310.389 115.047,310.389 114.553,310.343 114.250 C 310.297 113.947,310.260 114.195,310.260 114.800 M310.262 117.700 C 310.263 118.360,310.300 118.606,310.345 118.246 C 310.389 117.887,310.389 117.347,310.343 117.046 C 310.297 116.746,310.261 117.040,310.262 117.700 M316.446 120.000 C 316.446 120.385,316.488 120.543,316.538 120.350 C 316.588 120.158,316.588 119.843,316.538 119.650 C 316.488 119.458,316.446 119.615,316.446 120.000 M89.850 120.900 C 89.853 121.340,89.894 121.496,89.941 121.248 C 89.989 120.999,89.987 120.639,89.937 120.448 C 89.887 120.256,89.848 120.460,89.850 120.900 M238.192 141.148 C 237.701 141.670,237.576 141.848,237.914 141.545 C 238.251 141.242,238.603 141.063,238.696 141.147 C 238.788 141.231,238.799 141.188,238.720 141.050 C 238.641 140.912,238.662 140.800,238.767 140.800 C 238.872 140.800,239.009 140.665,239.072 140.500 C 239.243 140.055,239.167 140.111,238.192 141.148 M161.000 140.600 C 161.000 140.710,161.095 140.800,161.212 140.800 C 161.328 140.800,161.359 140.912,161.280 141.050 C 161.201 141.188,161.213 141.230,161.308 141.144 C 161.402 141.058,162.294 141.778,163.290 142.744 L 165.100 144.500 163.104 142.450 C 160.993 140.282,161.000 140.289,161.000 140.600 M98.400 142.063 C 98.400 142.097,98.692 142.390,99.050 142.713 L 99.700 143.300 99.113 142.650 C 98.565 142.044,98.400 141.908,98.400 142.063 M235.891 143.450 L 235.100 144.300 235.950 143.509 C 236.740 142.774,236.892 142.600,236.741 142.600 C 236.708 142.600,236.325 142.983,235.891 143.450 M304.589 147.950 L 303.900 148.700 304.650 148.011 C 305.348 147.369,305.492 147.200,305.339 147.200 C 305.306 147.200,304.968 147.537,304.589 147.950 M232.891 148.850 L 232.100 149.700 232.950 148.909 C 233.740 148.174,233.892 148.000,233.741 148.000 C 233.708 148.000,233.325 148.383,232.891 148.850 M238.500 155.800 C 239.042 156.350,239.530 156.800,239.585 156.800 C 239.640 156.800,239.242 156.350,238.700 155.800 C 238.158 155.250,237.670 154.800,237.615 154.800 C 237.560 154.800,237.958 155.250,238.500 155.800 M160.887 156.250 L 160.300 156.900 160.950 156.313 C 161.308 155.990,161.600 155.697,161.600 155.663 C 161.600 155.508,161.435 155.644,160.887 156.250 M194.552 157.941 C 194.801 157.989,195.161 157.987,195.352 157.937 C 195.544 157.887,195.340 157.848,194.900 157.850 C 194.460 157.853,194.304 157.894,194.552 157.941 M204.850 157.938 C 205.043 157.988,205.357 157.988,205.550 157.938 C 205.743 157.888,205.585 157.846,205.200 157.846 C 204.815 157.846,204.658 157.888,204.850 157.938 M198.850 158.148 C 199.483 158.187,200.518 158.187,201.150 158.148 C 201.783 158.108,201.265 158.076,200.000 158.076 C 198.735 158.076,198.218 158.108,198.850 158.148 M137.056 166.347 C 137.582 166.389,138.392 166.388,138.856 166.346 C 139.320 166.304,138.890 166.270,137.900 166.271 C 136.910 166.272,136.530 166.306,137.056 166.347 M261.050 166.346 C 261.463 166.389,262.137 166.389,262.550 166.346 C 262.963 166.303,262.625 166.267,261.800 166.267 C 260.975 166.267,260.637 166.303,261.050 166.346 M153.846 189.400 C 153.846 189.785,153.888 189.942,153.938 189.750 C 153.988 189.558,153.988 189.243,153.938 189.050 C 153.888 188.858,153.846 189.015,153.846 189.400 M154.054 191.200 C 154.054 191.695,154.093 191.898,154.141 191.650 C 154.189 191.403,154.189 190.998,154.141 190.750 C 154.093 190.503,154.054 190.705,154.054 191.200 M245.846 191.400 C 245.846 191.785,245.888 191.942,245.938 191.750 C 245.988 191.558,245.988 191.243,245.938 191.050 C 245.888 190.858,245.846 191.015,245.846 191.400 M245.650 193.900 C 245.653 194.340,245.694 194.496,245.741 194.248 C 245.789 193.999,245.787 193.639,245.737 193.448 C 245.687 193.256,245.648 193.460,245.650 193.900 M154.477 200.000 C 154.477 201.375,154.509 201.938,154.548 201.250 C 154.587 200.563,154.587 199.438,154.548 198.750 C 154.509 198.063,154.477 198.625,154.477 200.000 M245.475 200.500 C 245.475 201.710,245.508 202.179,245.548 201.543 C 245.588 200.906,245.587 199.916,245.547 199.343 C 245.507 198.769,245.474 199.290,245.475 200.500 M148.257 200.300 C 148.259 200.850,148.298 201.051,148.344 200.747 C 148.389 200.443,148.388 199.993,148.341 199.747 C 148.293 199.501,148.256 199.750,148.257 200.300 M251.846 205.000 C 251.846 205.385,251.888 205.543,251.938 205.350 C 251.988 205.157,251.988 204.843,251.938 204.650 C 251.888 204.458,251.846 204.615,251.846 205.000 M148.046 205.600 C 148.046 205.985,148.088 206.143,148.138 205.950 C 148.188 205.757,148.188 205.443,148.138 205.250 C 148.088 205.058,148.046 205.215,148.046 205.600 M154.246 206.000 C 154.246 206.385,154.288 206.543,154.338 206.350 C 154.388 206.157,154.388 205.843,154.338 205.650 C 154.288 205.457,154.246 205.615,154.246 206.000 M245.650 206.100 C 245.653 206.540,245.694 206.696,245.741 206.448 C 245.789 206.199,245.787 205.839,245.737 205.648 C 245.687 205.456,245.648 205.660,245.650 206.100 M197.453 207.344 C 197.757 207.389,198.207 207.388,198.453 207.341 C 198.699 207.293,198.450 207.256,197.900 207.257 C 197.350 207.259,197.149 207.298,197.453 207.344 M201.955 207.347 C 202.426 207.389,203.146 207.388,203.555 207.345 C 203.965 207.302,203.580 207.268,202.700 207.269 C 201.820 207.269,201.485 207.304,201.955 207.347 M188.152 207.941 C 188.401 207.989,188.761 207.987,188.952 207.937 C 189.144 207.887,188.940 207.848,188.500 207.850 C 188.060 207.853,187.904 207.894,188.152 207.941 M186.352 208.141 C 186.601 208.189,186.961 208.187,187.152 208.137 C 187.344 208.087,187.140 208.048,186.700 208.050 C 186.260 208.053,186.104 208.094,186.352 208.141 M154.054 209.200 C 154.054 209.695,154.093 209.898,154.141 209.650 C 154.189 209.403,154.189 208.998,154.141 208.750 C 154.093 208.503,154.054 208.705,154.054 209.200 M245.846 209.000 C 245.846 209.385,245.888 209.543,245.938 209.350 C 245.988 209.157,245.988 208.843,245.938 208.650 C 245.888 208.457,245.846 208.615,245.846 209.000 M153.850 211.100 C 153.853 211.540,153.894 211.696,153.941 211.448 C 153.989 211.199,153.987 210.839,153.937 210.648 C 153.887 210.456,153.848 210.660,153.850 211.100 M199.150 213.546 C 199.618 213.589,200.383 213.589,200.850 213.546 C 201.317 213.504,200.935 213.470,200.000 213.470 C 199.065 213.470,198.683 213.504,199.150 213.546 M193.950 213.741 C 194.197 213.789,194.603 213.789,194.850 213.741 C 195.097 213.693,194.895 213.654,194.400 213.654 C 193.905 213.654,193.703 213.693,193.950 213.741 M205.350 213.741 C 205.597 213.789,206.003 213.789,206.250 213.741 C 206.498 213.693,206.295 213.654,205.800 213.654 C 205.305 213.654,205.103 213.693,205.350 213.741 M154.100 215.000 C 153.848 215.108,153.811 215.172,154.000 215.172 C 154.165 215.172,154.480 215.095,154.700 215.000 C 154.952 214.892,154.989 214.828,154.800 214.828 C 154.635 214.828,154.320 214.905,154.100 215.000 M95.350 224.941 C 95.598 224.989,96.002 224.989,96.250 224.941 C 96.498 224.893,96.295 224.854,95.800 224.854 C 95.305 224.854,95.103 224.893,95.350 224.941 M303.750 224.941 C 303.998 224.989,304.403 224.989,304.650 224.941 C 304.897 224.893,304.695 224.854,304.200 224.854 C 303.705 224.854,303.502 224.893,303.750 224.941 M102.950 232.341 C 103.197 232.389,103.603 232.389,103.850 232.341 C 104.097 232.293,103.895 232.254,103.400 232.254 C 102.905 232.254,102.703 232.293,102.950 232.341 M296.150 232.341 C 296.397 232.389,296.803 232.389,297.050 232.341 C 297.298 232.293,297.095 232.254,296.600 232.254 C 296.105 232.254,295.903 232.293,296.150 232.341 M166.950 242.746 C 167.418 242.789,168.183 242.789,168.650 242.746 C 169.118 242.704,168.735 242.670,167.800 242.670 C 166.865 242.670,166.483 242.704,166.950 242.746 M231.350 242.746 C 231.818 242.789,232.582 242.789,233.050 242.746 C 233.518 242.704,233.135 242.670,232.200 242.670 C 231.265 242.670,230.882 242.704,231.350 242.746 M227.250 242.938 C 227.443 242.988,227.757 242.988,227.950 242.938 C 228.143 242.888,227.985 242.846,227.600 242.846 C 227.215 242.846,227.058 242.888,227.250 242.938 M324.457 245.100 C 324.459 245.650,324.498 245.851,324.544 245.547 C 324.589 245.243,324.588 244.793,324.541 244.547 C 324.493 244.301,324.456 244.550,324.457 245.100 M95.992 251.850 C 96.482 252.373,96.910 252.800,96.942 252.800 C 97.092 252.800,96.933 252.620,96.050 251.792 L 95.100 250.900 95.992 251.850 M303.891 251.850 L 303.100 252.700 303.950 251.909 C 304.740 251.174,304.892 251.000,304.741 251.000 C 304.708 251.000,304.325 251.382,303.891 251.850 M112.857 257.748 C 113.494 257.788,114.484 257.787,115.057 257.747 C 115.631 257.707,115.110 257.674,113.900 257.675 C 112.690 257.675,112.221 257.708,112.857 257.748 M285.057 257.748 C 285.694 257.788,286.684 257.787,287.257 257.747 C 287.831 257.707,287.310 257.674,286.100 257.675 C 284.890 257.675,284.421 257.708,285.057 257.748 M87.392 268.250 C 87.882 268.772,88.310 269.200,88.342 269.200 C 88.492 269.200,88.333 269.020,87.450 268.192 L 86.500 267.300 87.392 268.250 M127.550 284.541 C 127.797 284.589,128.203 284.589,128.450 284.541 C 128.697 284.493,128.495 284.454,128.000 284.454 C 127.505 284.454,127.303 284.493,127.550 284.541 M271.550 284.541 C 271.798 284.589,272.203 284.589,272.450 284.541 C 272.697 284.493,272.495 284.454,272.000 284.454 C 271.505 284.454,271.303 284.493,271.550 284.541 M131.456 284.747 C 131.982 284.789,132.792 284.788,133.256 284.746 C 133.720 284.704,133.290 284.670,132.300 284.671 C 131.310 284.672,130.930 284.706,131.456 284.747 M138.146 284.744 C 138.501 284.789,139.131 284.789,139.546 284.746 C 139.960 284.703,139.670 284.667,138.900 284.666 C 138.130 284.665,137.790 284.700,138.146 284.744 M260.346 284.744 C 260.701 284.789,261.331 284.789,261.746 284.746 C 262.160 284.703,261.870 284.667,261.100 284.666 C 260.330 284.665,259.990 284.700,260.346 284.744 M266.856 284.747 C 267.382 284.789,268.192 284.788,268.656 284.746 C 269.120 284.704,268.690 284.670,267.700 284.671 C 266.710 284.672,266.330 284.706,266.856 284.747 M220.294 332.000 C 220.294 339.205,220.319 342.153,220.350 338.550 C 220.380 334.947,220.380 329.053,220.350 325.450 C 220.319 321.848,220.294 324.795,220.294 332.000 M193.841 322.148 C 194.579 322.186,195.839 322.187,196.641 322.149 C 197.444 322.111,196.840 322.079,195.300 322.079 C 193.760 322.079,193.104 322.110,193.841 322.148 M248.453 326.344 C 248.757 326.389,249.207 326.388,249.453 326.341 C 249.699 326.293,249.450 326.256,248.900 326.257 C 248.350 326.259,248.149 326.298,248.453 326.344 M266.688 339.600 C 266.688 342.625,266.716 343.863,266.750 342.350 C 266.783 340.838,266.783 338.363,266.750 336.850 C 266.716 335.338,266.688 336.575,266.688 339.600 M272.087 339.800 C 272.087 342.715,272.115 343.908,272.149 342.450 C 272.184 340.993,272.184 338.608,272.149 337.150 C 272.115 335.693,272.087 336.885,272.087 339.800 " stroke="none" fill="#818a8e" fill-rule="evenodd"></path></g></svg>