<svg id="svg" version="1.1" xmlns="http://www.w3.org/2000/svg" xmlns:xlink="http://www.w3.org/1999/xlink" width="400" height="400" viewBox="0, 0, 400,400"><g id="svgg"><path id="path0" d="M194.200 41.812 C 171.995 43.868,153.094 56.348,143.566 75.244 C 143.134 76.100,142.699 76.800,142.598 76.800 C 142.498 76.800,142.323 77.138,142.211 77.550 C 141.967 78.442,140.104 81.626,139.690 81.858 C 139.530 81.947,139.400 82.133,139.400 82.272 C 139.400 82.411,138.928 82.958,138.350 83.488 C 134.355 87.157,129.212 88.310,124.500 86.592 C 121.692 85.568,120.319 84.570,117.913 81.800 C 116.641 80.336,115.125 76.298,114.727 73.315 C 114.423 71.036,114.558 71.028,111.418 73.530 C 93.265 88.001,85.513 110.691,92.024 130.300 C 97.126 145.668,113.553 157.125,134.192 159.713 C 142.642 160.772,153.988 158.342,162.226 153.710 C 164.150 152.628,164.150 152.628,163.578 153.430 C 160.336 157.983,151.911 163.825,147.050 164.889 C 146.228 165.069,146.219 165.007,147.367 167.120 C 151.499 174.730,153.821 183.815,154.415 194.703 C 154.744 200.727,154.458 208.360,153.718 213.331 C 153.573 214.304,153.467 215.117,153.482 215.139 C 153.498 215.160,154.678 214.822,156.105 214.388 C 170.103 210.129,187.778 207.205,199.545 207.201 L 202.190 207.200 202.065 206.550 C 201.997 206.193,201.786 205.405,201.597 204.800 C 199.907 199.391,199.006 187.739,199.602 179.000 C 199.932 174.156,200.734 166.144,201.129 163.750 L 201.252 163.000 199.276 162.998 C 185.388 162.983,167.811 153.021,161.437 141.553 C 160.492 139.851,160.634 139.878,162.450 141.747 C 169.726 149.233,179.343 154.572,190.085 157.088 C 201.526 159.768,216.659 156.862,227.378 149.928 C 229.217 148.738,229.123 148.641,226.852 149.383 C 222.281 150.877,209.973 151.447,202.993 150.488 C 199.430 149.999,194.898 148.876,192.656 147.927 C 191.972 147.637,191.316 147.400,191.199 147.400 C 190.827 147.400,184.865 144.464,183.927 143.819 C 183.433 143.478,182.984 143.200,182.930 143.200 C 182.876 143.200,182.097 142.683,181.198 142.050 C 180.299 141.417,179.364 140.765,179.121 140.600 C 177.358 139.406,171.976 134.238,170.500 132.321 C 170.170 131.892,169.608 131.206,169.250 130.796 C 168.893 130.387,168.600 129.961,168.600 129.850 C 168.600 129.740,168.454 129.528,168.276 129.380 C 167.975 129.130,166.189 126.601,165.677 125.700 C 165.553 125.480,165.066 124.625,164.597 123.800 C 161.709 118.723,159.560 113.222,158.619 108.500 C 157.530 103.029,157.513 102.860,157.528 98.100 C 157.540 94.277,157.617 93.094,157.980 91.100 C 158.221 89.780,158.512 88.070,158.626 87.300 C 158.809 86.071,159.699 82.490,160.491 79.800 C 160.891 78.438,161.614 76.407,162.057 75.400 C 162.275 74.905,162.610 74.050,162.802 73.500 C 163.151 72.503,164.118 70.329,164.804 69.000 C 165.905 66.865,167.601 63.799,167.845 63.500 C 167.935 63.390,168.377 62.715,168.829 62.000 C 169.280 61.285,169.728 60.670,169.824 60.633 C 169.921 60.597,170.000 60.478,170.000 60.370 C 170.000 60.172,170.184 59.932,172.431 57.200 C 174.748 54.383,176.080 52.975,177.790 51.538 C 178.731 50.748,179.572 49.988,179.660 49.850 C 179.748 49.713,179.938 49.600,180.083 49.600 C 180.227 49.600,180.560 49.388,180.823 49.130 C 181.919 48.050,188.550 44.343,190.100 43.944 C 190.320 43.887,191.265 43.574,192.200 43.247 C 193.135 42.921,195.025 42.453,196.400 42.207 C 197.775 41.961,198.990 41.731,199.100 41.695 C 199.490 41.571,195.875 41.657,194.200 41.812 " stroke="none" fill="#fff" fill-rule="evenodd"></path><path id="path1" d="M196.300 35.139 C 191.696 35.445,187.804 35.887,185.835 36.325 C 184.551 36.611,183.050 36.922,182.500 37.016 C 181.950 37.111,180.555 37.469,179.400 37.814 C 177.527 38.372,176.616 38.679,173.700 39.738 C 169.809 41.149,164.068 44.181,160.328 46.799 C 159.463 47.405,158.549 48.035,158.297 48.200 C 157.788 48.533,157.431 48.817,154.751 51.023 C 153.733 51.861,152.729 52.739,152.519 52.973 C 152.178 53.355,151.925 53.400,150.119 53.403 C 145.847 53.409,139.627 53.968,136.803 54.598 C 135.320 54.929,133.970 55.200,133.803 55.200 C 133.482 55.200,129.582 56.381,127.900 56.989 C 127.350 57.187,126.450 57.509,125.900 57.703 C 125.350 57.898,124.247 58.359,123.449 58.728 C 122.652 59.098,121.940 59.400,121.868 59.400 C 121.726 59.400,118.619 60.959,116.700 61.993 C 116.040 62.349,115.214 62.856,114.863 63.120 C 114.513 63.384,114.138 63.600,114.029 63.600 C 113.920 63.600,113.576 63.808,113.265 64.062 C 112.954 64.317,112.295 64.759,111.800 65.045 C 111.305 65.332,110.701 65.754,110.458 65.983 C 110.215 66.212,109.945 66.401,109.858 66.403 C 109.771 66.405,109.416 66.652,109.068 66.953 C 108.721 67.254,107.969 67.860,107.397 68.300 C 105.504 69.757,104.529 70.646,101.487 73.687 C 98.523 76.651,95.976 79.543,94.800 81.282 C 94.635 81.526,94.050 82.380,93.500 83.179 C 92.497 84.637,91.957 85.495,91.219 86.800 C 91.001 87.185,90.636 87.815,90.408 88.200 C 89.298 90.069,87.025 95.243,86.410 97.300 C 86.213 97.960,85.868 99.040,85.643 99.700 C 82.289 109.558,82.638 126.582,86.341 133.800 C 86.482 134.075,86.598 134.410,86.599 134.545 C 86.601 135.065,89.269 140.282,90.359 141.900 C 93.096 145.963,97.695 150.949,100.874 153.300 C 101.617 153.850,102.588 154.593,103.032 154.950 C 103.475 155.308,103.953 155.600,104.094 155.600 C 104.236 155.600,104.461 155.733,104.596 155.895 C 105.166 156.582,113.688 161.200,114.386 161.200 C 114.503 161.200,115.280 161.515,116.114 161.900 C 116.947 162.285,117.780 162.600,117.965 162.601 C 118.149 162.601,119.020 162.883,119.900 163.227 C 120.780 163.571,121.995 163.963,122.600 164.098 C 123.205 164.233,124.645 164.579,125.800 164.868 C 129.524 165.799,135.093 166.600,137.840 166.600 L 139.395 166.600 139.889 167.383 C 140.161 167.814,140.477 168.224,140.592 168.295 C 140.706 168.366,140.800 168.566,140.800 168.741 C 140.800 168.916,141.115 169.533,141.500 170.113 C 141.885 170.693,142.200 171.258,142.200 171.369 C 142.200 171.480,142.515 172.175,142.900 172.914 C 143.285 173.653,143.600 174.362,143.600 174.491 C 143.600 174.620,143.824 175.189,144.097 175.755 C 144.370 176.322,144.761 177.396,144.964 178.143 C 145.168 178.889,145.568 180.355,145.853 181.400 C 146.424 183.498,147.274 188.059,147.641 191.000 C 148.329 196.512,147.657 213.651,146.691 215.214 C 146.628 215.317,146.506 216.009,146.421 216.751 C 146.336 217.493,145.960 219.557,145.587 221.337 C 145.213 223.117,144.968 224.634,145.042 224.709 C 145.172 224.839,145.616 224.708,149.800 223.301 C 156.225 221.141,163.689 218.972,167.300 218.217 C 167.850 218.102,169.110 217.784,170.100 217.510 C 171.090 217.236,172.135 217.009,172.423 217.006 C 172.711 217.003,173.926 216.780,175.123 216.511 C 187.964 213.624,206.036 213.015,216.800 215.105 C 217.625 215.265,219.245 215.527,220.400 215.686 C 221.555 215.846,223.355 216.171,224.400 216.408 C 225.445 216.645,226.795 216.907,227.400 216.989 C 228.623 217.155,232.537 218.098,235.900 219.038 C 237.110 219.375,238.460 219.715,238.900 219.791 C 239.576 219.909,242.245 220.691,244.500 221.432 C 244.830 221.541,245.820 221.859,246.700 222.139 C 247.580 222.419,249.155 222.942,250.200 223.300 C 251.245 223.659,252.640 224.110,253.300 224.302 C 253.960 224.494,254.612 224.694,254.749 224.747 C 255.085 224.875,254.949 223.778,254.100 219.500 C 252.264 210.248,252.106 208.715,252.108 200.200 C 252.110 192.732,252.271 190.541,253.113 186.539 C 253.271 185.788,253.400 184.919,253.400 184.608 C 253.400 184.004,254.541 179.695,255.229 177.700 C 256.172 174.964,256.472 174.220,257.283 172.600 C 258.810 169.548,259.464 168.302,259.594 168.200 C 259.664 168.145,259.926 167.763,260.177 167.350 C 260.629 166.606,260.643 166.600,261.966 166.591 C 265.133 166.570,271.071 165.690,274.855 164.681 C 276.261 164.307,277.541 164.000,277.701 164.000 C 277.860 164.000,278.825 163.699,279.845 163.332 C 280.865 162.964,282.060 162.548,282.500 162.408 C 282.940 162.267,283.750 161.951,284.300 161.706 C 284.850 161.461,285.546 161.201,285.846 161.127 C 286.146 161.054,286.848 160.726,287.405 160.397 C 287.962 160.069,288.511 159.800,288.625 159.800 C 288.739 159.800,289.370 159.485,290.027 159.100 C 290.684 158.715,291.279 158.400,291.349 158.400 C 291.482 158.400,293.963 156.964,294.771 156.418 C 295.030 156.243,295.536 155.920,295.895 155.700 C 297.037 154.999,299.455 153.112,301.358 151.437 C 303.301 149.726,304.194 148.815,306.790 145.900 C 307.262 145.371,310.400 140.848,310.400 140.698 C 310.400 140.633,310.715 140.088,311.100 139.487 C 311.485 138.885,311.800 138.332,311.800 138.258 C 311.800 138.184,312.109 137.488,312.486 136.712 C 315.402 130.715,316.700 124.427,316.700 116.300 C 316.700 108.148,315.537 101.954,312.662 94.800 C 312.375 94.085,312.023 93.174,311.880 92.775 C 311.736 92.377,311.345 91.585,311.010 91.016 C 310.674 90.448,310.398 89.874,310.395 89.741 C 310.392 89.609,310.077 89.009,309.695 88.409 C 309.313 87.809,309.000 87.236,309.000 87.136 C 309.000 87.036,308.685 86.524,308.300 86.000 C 307.915 85.476,307.600 84.994,307.600 84.929 C 307.600 84.730,305.766 81.966,305.373 81.573 C 305.168 81.368,305.000 81.116,305.000 81.014 C 305.000 80.912,304.867 80.696,304.705 80.533 C 304.542 80.371,303.854 79.532,303.175 78.669 C 302.495 77.806,301.427 76.560,300.800 75.900 C 297.469 72.394,297.274 72.209,292.876 68.418 C 292.532 68.122,292.009 67.721,291.712 67.527 C 291.416 67.332,290.999 66.999,290.787 66.787 C 290.574 66.574,290.269 66.400,290.110 66.400 C 289.950 66.400,289.748 66.283,289.660 66.139 C 289.480 65.844,286.254 63.600,286.011 63.600 C 285.925 63.600,285.627 63.421,285.349 63.203 C 285.071 62.984,284.362 62.565,283.772 62.271 C 283.182 61.978,282.655 61.677,282.600 61.604 C 282.390 61.326,275.936 58.338,274.400 57.809 C 274.015 57.676,273.115 57.356,272.400 57.098 C 270.313 56.343,266.597 55.200,266.231 55.200 C 266.046 55.200,264.680 54.929,263.197 54.598 C 260.285 53.948,254.475 53.413,250.200 53.403 L 247.900 53.397 246.881 52.448 C 245.204 50.889,241.879 48.200,241.627 48.200 C 241.529 48.200,241.329 48.056,241.183 47.880 C 241.037 47.703,240.193 47.091,239.309 46.518 C 238.424 45.945,237.431 45.301,237.102 45.088 C 233.604 42.819,225.347 39.056,222.100 38.251 C 221.660 38.142,220.490 37.824,219.500 37.544 C 212.873 35.668,203.280 34.674,196.300 35.139 M203.256 41.799 C 205.260 41.912,207.530 42.099,208.300 42.215 C 209.070 42.330,210.403 42.505,211.263 42.605 C 213.190 42.827,217.294 43.811,219.700 44.627 C 220.690 44.963,221.770 45.305,222.100 45.388 C 222.430 45.471,223.345 45.822,224.134 46.169 C 224.922 46.516,225.668 46.800,225.790 46.800 C 225.980 46.800,227.104 47.336,229.400 48.523 C 231.774 49.751,234.805 51.540,235.313 52.014 C 235.540 52.227,235.832 52.400,235.963 52.400 C 236.093 52.400,236.374 52.574,236.587 52.787 C 236.799 52.999,237.227 53.336,237.537 53.535 C 237.846 53.733,238.761 54.437,239.569 55.098 C 240.376 55.759,241.279 56.480,241.574 56.700 C 241.869 56.920,242.648 57.612,243.305 58.237 C 243.962 58.863,244.680 59.545,244.900 59.754 C 245.303 60.136,247.766 62.831,248.243 63.413 C 248.384 63.585,248.866 64.170,249.312 64.713 C 249.759 65.256,250.413 66.105,250.766 66.600 C 251.119 67.095,251.719 67.905,252.099 68.400 C 253.349 70.027,255.343 73.353,256.446 75.650 C 256.802 76.392,257.176 77.000,257.276 77.000 C 257.536 77.000,257.282 74.958,256.803 73.200 C 256.579 72.375,256.310 71.283,256.207 70.773 C 255.888 69.197,253.875 64.727,252.707 63.000 C 252.373 62.505,251.972 61.853,251.816 61.551 C 251.661 61.250,251.324 60.865,251.067 60.697 C 250.123 60.078,250.499 59.939,252.750 60.076 C 259.927 60.514,267.821 62.237,272.818 64.457 C 273.413 64.721,274.215 65.060,274.600 65.209 C 275.639 65.612,280.549 68.151,281.376 68.713 C 281.770 68.981,282.199 69.200,282.330 69.200 C 282.460 69.200,282.597 69.278,282.633 69.373 C 282.670 69.468,283.366 69.986,284.180 70.523 C 287.371 72.629,290.330 74.937,292.335 76.884 C 292.685 77.223,293.069 77.590,293.189 77.700 C 293.405 77.898,295.998 80.634,296.885 81.600 C 297.381 82.141,300.373 86.027,300.700 86.557 C 300.810 86.735,301.193 87.311,301.550 87.838 C 301.907 88.365,302.200 88.869,302.200 88.959 C 302.200 89.049,302.433 89.432,302.717 89.811 C 303.002 90.190,303.455 90.950,303.724 91.500 C 303.993 92.050,304.385 92.815,304.594 93.200 C 305.240 94.387,306.400 96.918,306.400 97.140 C 306.400 97.256,306.639 97.879,306.930 98.525 C 307.781 100.409,309.009 105.066,309.482 108.200 C 310.623 115.768,310.284 122.553,308.480 128.245 C 308.106 129.425,307.800 130.482,307.800 130.594 C 307.800 130.817,306.603 133.539,306.082 134.500 C 305.903 134.830,305.527 135.550,305.246 136.100 C 304.576 137.411,302.573 140.400,302.364 140.400 C 302.274 140.400,302.200 140.522,302.200 140.672 C 302.200 140.821,301.886 141.249,301.502 141.622 C 301.118 141.995,300.803 142.375,300.802 142.467 C 300.800 142.609,299.610 143.808,296.490 146.813 C 296.154 147.136,295.794 147.402,295.690 147.403 C 295.585 147.405,295.284 147.634,295.020 147.912 C 294.547 148.411,292.967 149.545,291.733 150.273 C 291.385 150.478,291.055 150.712,291.000 150.793 C 290.945 150.874,290.360 151.236,289.700 151.597 C 289.040 151.958,288.410 152.323,288.300 152.409 C 287.726 152.857,281.401 155.800,281.013 155.800 C 280.910 155.800,280.122 156.063,279.263 156.384 C 275.675 157.725,271.908 158.661,266.700 159.506 C 261.611 160.332,253.786 159.572,247.600 157.650 C 245.110 156.877,244.963 156.824,243.561 156.211 C 243.045 155.985,242.559 155.800,242.482 155.800 C 242.155 155.800,238.256 153.911,237.686 153.476 C 237.343 153.214,236.995 153.000,236.912 153.000 C 236.829 153.000,236.500 152.814,236.181 152.586 C 234.602 151.462,236.573 154.144,239.132 156.600 C 241.508 158.882,242.548 159.800,242.755 159.800 C 242.850 159.800,243.296 160.115,243.746 160.500 C 244.196 160.885,244.618 161.200,244.684 161.200 C 244.750 161.200,245.252 161.515,245.800 161.900 C 246.348 162.285,246.879 162.600,246.981 162.600 C 247.083 162.600,247.761 162.915,248.486 163.300 C 249.212 163.685,249.966 164.000,250.163 164.000 C 250.359 164.000,250.606 164.076,250.710 164.169 C 250.815 164.262,251.463 164.543,252.150 164.793 C 253.582 165.315,253.547 165.247,252.907 166.300 C 246.675 176.545,243.755 195.752,246.005 211.694 C 246.222 213.231,246.400 214.595,246.400 214.726 C 246.400 214.976,246.328 214.959,242.400 213.781 C 241.355 213.468,240.230 213.158,239.900 213.093 C 239.570 213.028,238.130 212.675,236.700 212.307 C 233.527 211.493,228.295 210.298,226.800 210.046 C 226.195 209.945,224.530 209.629,223.100 209.345 C 221.670 209.061,219.735 208.727,218.800 208.602 C 217.865 208.477,215.885 208.202,214.400 207.991 C 199.049 205.802,174.040 208.702,155.000 214.877 C 153.161 215.474,153.310 215.745,153.680 212.467 C 155.684 194.706,153.621 179.446,147.670 168.024 C 146.846 166.442,146.246 165.088,146.336 165.013 C 146.426 164.939,147.175 164.671,148.000 164.416 C 152.487 163.034,157.469 159.777,161.450 155.624 C 163.945 153.022,163.936 153.012,160.550 154.689 C 143.950 162.913,124.593 161.373,108.100 150.516 C 84.893 135.241,83.132 103.794,104.160 80.133 C 106.914 77.035,113.767 71.071,114.369 71.250 C 114.461 71.278,115.265 70.828,116.155 70.250 C 117.045 69.672,117.825 69.200,117.888 69.200 C 117.952 69.200,118.431 68.905,118.952 68.544 C 119.980 67.833,125.596 65.000,125.979 65.000 C 126.108 65.000,126.644 64.782,127.171 64.514 C 131.310 62.417,139.666 60.589,147.473 60.072 C 149.447 59.942,149.896 60.223,148.797 60.902 C 148.517 61.075,146.400 64.316,146.400 64.572 C 146.400 64.688,146.139 65.225,145.820 65.766 C 145.159 66.887,143.842 70.457,143.595 71.800 C 143.504 72.295,143.296 73.240,143.133 73.900 C 142.362 77.024,142.428 77.027,144.117 73.950 C 153.794 56.319,170.146 45.168,191.000 41.980 C 192.493 41.752,198.867 41.408,199.356 41.529 C 199.498 41.564,201.253 41.685,203.256 41.799 M237.591 141.552 C 235.498 143.694,234.345 144.726,232.568 146.052 C 231.816 146.613,231.200 147.146,231.200 147.236 C 231.200 147.326,231.069 147.400,230.908 147.400 C 230.748 147.400,230.231 147.778,229.758 148.240 C 228.524 149.447,226.677 150.629,223.098 152.503 C 203.539 162.742,179.986 158.890,163.217 142.710 L 161.135 140.700 161.817 141.964 C 167.288 152.096,182.961 161.367,197.028 162.792 C 202.847 163.381,208.304 162.649,214.100 160.501 C 215.090 160.134,216.119 159.770,216.386 159.692 C 216.653 159.614,217.371 159.291,217.981 158.975 C 218.590 158.659,219.187 158.400,219.306 158.400 C 219.426 158.400,220.047 158.085,220.686 157.700 C 221.325 157.315,221.941 157.000,222.054 157.000 C 222.166 157.000,222.733 156.685,223.313 156.300 C 223.893 155.915,224.452 155.600,224.556 155.600 C 224.659 155.600,225.139 155.286,225.622 154.902 C 226.105 154.518,226.574 154.203,226.663 154.202 C 226.861 154.200,228.273 153.162,228.367 152.950 C 228.403 152.868,228.528 152.800,228.644 152.800 C 228.760 152.800,229.270 152.435,229.778 151.989 C 231.777 150.230,233.470 148.687,233.680 148.432 C 233.801 148.285,234.291 147.745,234.769 147.232 C 236.355 145.530,237.123 144.457,238.577 141.908 C 240.140 139.170,239.978 139.111,237.591 141.552 M91.500 224.744 C 85.057 225.652,80.576 228.977,77.640 235.030 C 77.178 235.982,76.800 236.857,76.800 236.974 C 76.800 237.092,76.587 237.843,76.326 238.644 C 74.558 244.075,75.304 250.013,78.544 256.300 C 79.613 258.374,80.215 259.459,80.582 259.975 C 80.812 260.298,81.000 260.629,81.000 260.711 C 81.000 260.881,81.729 261.880,83.587 264.255 C 85.262 266.396,89.074 270.198,91.100 271.748 C 91.980 272.422,92.970 273.188,93.300 273.451 C 94.363 274.298,98.841 276.914,100.900 277.891 C 102.000 278.413,103.336 279.056,103.868 279.320 C 104.401 279.584,104.961 279.800,105.113 279.800 C 105.264 279.800,105.909 280.030,106.544 280.312 C 107.180 280.593,108.285 280.989,109.000 281.192 C 109.715 281.395,110.930 281.753,111.700 281.988 C 112.470 282.223,113.730 282.538,114.500 282.688 C 115.270 282.837,117.025 283.189,118.400 283.469 C 121.110 284.020,124.870 284.462,129.900 284.822 C 136.972 285.328,147.609 284.543,153.436 283.085 C 154.501 282.818,155.581 282.601,155.836 282.603 C 157.531 282.615,173.575 277.301,175.543 276.076 C 175.787 275.924,176.077 275.800,176.189 275.800 C 177.005 275.800,191.695 268.266,192.200 267.588 C 192.255 267.514,192.502 267.391,192.749 267.314 C 192.996 267.237,193.311 267.062,193.449 266.925 C 193.587 266.787,194.265 266.345,194.955 265.941 C 195.645 265.537,196.320 265.115,196.455 265.002 C 196.590 264.889,197.444 264.298,198.354 263.689 L 200.008 262.581 201.468 263.591 C 202.271 264.146,203.034 264.600,203.164 264.600 C 203.294 264.600,203.400 264.675,203.400 264.766 C 203.400 264.857,203.988 265.276,204.707 265.697 C 205.426 266.117,206.058 266.532,206.112 266.619 C 206.166 266.706,206.880 267.147,207.700 267.600 C 208.520 268.053,209.243 268.508,209.307 268.611 C 209.371 268.715,209.569 268.800,209.746 268.800 C 209.923 268.800,210.225 268.941,210.416 269.114 C 211.128 269.759,223.199 275.800,223.774 275.800 C 223.857 275.800,224.403 276.030,224.986 276.312 C 226.340 276.965,230.864 278.690,233.400 279.520 C 237.797 280.959,243.507 282.608,244.077 282.603 C 244.284 282.601,245.904 282.908,247.677 283.285 C 255.797 285.011,267.098 285.470,275.000 284.394 C 275.715 284.296,277.245 284.127,278.400 284.017 C 279.555 283.907,281.715 283.543,283.200 283.208 C 284.685 282.872,286.305 282.506,286.800 282.393 C 288.665 281.970,293.060 280.546,294.000 280.061 C 294.275 279.919,294.640 279.802,294.811 279.801 C 294.982 279.801,295.567 279.585,296.111 279.321 C 296.655 279.058,298.180 278.324,299.500 277.690 C 300.820 277.056,302.125 276.383,302.400 276.194 C 302.675 276.006,303.340 275.592,303.877 275.276 C 305.828 274.127,306.110 273.944,306.734 273.426 C 307.082 273.137,307.802 272.585,308.334 272.200 C 309.838 271.111,314.600 266.639,314.600 266.315 C 314.600 266.229,314.816 265.987,315.081 265.779 C 315.623 265.353,318.564 261.540,318.744 261.031 C 318.808 260.849,319.005 260.535,319.180 260.334 C 319.582 259.875,320.628 258.043,321.313 256.600 C 321.600 255.995,322.097 254.949,322.418 254.275 C 322.738 253.602,323.000 252.877,323.000 252.665 C 323.000 252.453,323.082 252.195,323.182 252.090 C 324.864 250.339,324.962 242.373,323.362 237.517 C 321.925 233.155,318.120 228.108,315.400 226.956 C 315.125 226.840,314.386 226.483,313.757 226.164 C 311.156 224.844,305.799 224.249,302.400 224.902 C 299.339 225.491,298.914 225.614,297.324 226.368 C 293.256 228.297,289.686 231.875,287.832 235.880 C 287.187 237.273,287.133 237.888,287.735 236.988 C 288.342 236.081,290.187 234.477,291.146 234.023 C 291.671 233.775,292.325 233.457,292.600 233.317 C 294.911 232.134,299.159 232.244,301.095 233.536 C 301.311 233.681,301.596 233.800,301.727 233.800 C 302.043 233.800,303.600 234.827,303.600 235.036 C 303.600 235.126,303.713 235.200,303.850 235.201 C 304.721 235.205,307.639 239.308,308.018 241.061 C 308.540 243.480,307.398 247.221,305.290 249.992 C 304.469 251.072,302.008 253.400,301.688 253.400 C 301.605 253.400,301.251 253.619,300.901 253.886 C 300.001 254.572,296.742 256.005,295.416 256.298 C 294.802 256.433,293.400 256.753,292.300 257.009 C 289.737 257.605,283.060 257.688,280.100 257.162 C 275.761 256.390,272.451 255.507,268.900 254.173 C 268.020 253.842,267.030 253.500,266.700 253.413 C 266.370 253.325,265.490 252.972,264.745 252.627 C 264.000 252.282,263.329 252.000,263.254 252.000 C 263.106 252.000,260.749 250.961,258.447 249.882 C 257.647 249.507,256.873 249.200,256.726 249.200 C 256.580 249.200,256.019 248.964,255.480 248.676 C 254.941 248.388,254.140 248.026,253.700 247.872 C 253.260 247.718,252.270 247.331,251.500 247.011 C 239.657 242.095,228.131 241.161,218.016 244.298 C 217.182 244.557,215.936 244.909,215.246 245.081 C 214.556 245.253,213.608 245.569,213.139 245.782 C 212.670 245.996,212.019 246.236,211.693 246.315 C 211.367 246.395,210.470 246.750,209.700 247.105 C 208.930 247.459,207.825 247.958,207.244 248.212 C 206.663 248.466,206.089 248.793,205.969 248.937 C 205.849 249.082,205.629 249.200,205.479 249.200 C 205.330 249.200,204.715 249.515,204.113 249.900 C 203.512 250.285,202.932 250.600,202.825 250.600 C 202.718 250.600,202.376 250.808,202.065 251.062 C 201.754 251.316,201.155 251.722,200.732 251.965 L 199.965 252.407 198.605 251.504 C 197.858 251.007,197.178 250.600,197.094 250.600 C 197.010 250.600,196.482 250.305,195.921 249.944 C 194.408 248.971,189.072 246.404,188.549 246.397 C 188.412 246.395,187.535 246.081,186.600 245.700 C 185.665 245.319,184.737 245.005,184.539 245.003 C 184.340 245.002,183.350 244.732,182.339 244.404 C 181.327 244.077,179.870 243.720,179.100 243.611 C 178.330 243.503,176.989 243.278,176.121 243.111 C 167.824 241.519,158.401 242.835,148.700 246.940 C 148.040 247.220,147.152 247.576,146.726 247.731 C 146.301 247.887,145.382 248.281,144.685 248.607 C 143.987 248.933,143.333 249.200,143.230 249.200 C 143.128 249.200,142.407 249.515,141.627 249.900 C 140.848 250.285,140.116 250.600,140.001 250.600 C 139.885 250.600,139.165 250.915,138.400 251.300 C 137.635 251.685,136.918 252.000,136.806 252.000 C 136.694 252.000,135.920 252.315,135.086 252.700 C 134.253 253.085,133.454 253.400,133.310 253.400 C 133.167 253.400,132.566 253.611,131.975 253.869 C 124.863 256.969,113.893 258.386,107.700 257.004 C 106.710 256.783,105.351 256.478,104.681 256.326 C 103.270 256.007,100.487 254.803,99.240 253.973 C 98.767 253.658,98.328 253.400,98.264 253.400 C 97.969 253.400,94.804 250.419,94.802 250.138 C 94.801 250.049,94.540 249.644,94.222 249.238 C 92.534 247.083,91.490 243.171,91.998 240.906 C 92.494 238.696,96.754 233.800,98.182 233.800 C 98.271 233.800,98.947 233.527,99.684 233.193 C 101.946 232.167,105.315 232.218,107.400 233.311 C 107.675 233.455,108.345 233.781,108.889 234.036 C 109.442 234.295,110.469 235.095,111.218 235.850 C 111.956 236.593,112.608 237.200,112.669 237.200 C 112.834 237.200,112.203 235.748,111.880 235.384 C 111.726 235.211,111.600 234.949,111.600 234.803 C 111.600 234.316,109.717 231.773,108.257 230.289 C 106.049 228.044,102.411 225.879,100.022 225.388 C 96.331 224.629,93.720 224.432,91.500 224.744 M152.600 318.463 C 148.934 320.194,150.794 325.564,154.836 324.917 C 157.456 324.498,158.470 321.229,156.630 319.133 C 155.884 318.284,153.736 317.927,152.600 318.463 M184.184 318.655 C 181.652 320.361,182.270 324.283,185.168 324.898 C 189.062 325.724,191.098 320.893,187.802 318.650 C 186.875 318.019,185.124 318.021,184.184 318.655 M133.200 318.599 C 123.107 319.702,118.116 331.960,124.387 340.244 C 125.312 341.466,127.346 343.400,127.706 343.400 C 127.795 343.400,128.011 343.519,128.184 343.665 C 132.058 346.922,140.384 345.866,144.602 341.582 C 153.685 332.356,146.157 317.182,133.200 318.599 M160.738 318.929 C 160.662 319.005,160.600 324.949,160.600 332.138 L 160.600 345.210 163.950 345.155 L 167.300 345.100 167.353 339.731 L 167.407 334.363 169.389 334.431 C 172.866 334.552,173.056 334.876,173.165 340.850 L 173.244 345.200 176.541 345.200 L 179.838 345.200 179.751 339.750 C 179.655 333.726,179.521 332.916,178.395 331.555 C 177.773 330.802,176.298 330.000,175.537 330.000 C 175.172 330.000,175.201 329.925,175.790 329.350 C 176.436 328.719,177.800 326.837,177.800 326.576 C 177.800 326.505,178.604 324.798,179.587 322.783 C 180.569 320.768,181.329 319.047,181.275 318.959 C 181.221 318.872,179.576 318.800,177.620 318.800 L 174.063 318.800 173.305 320.450 C 170.551 326.441,170.157 327.090,168.922 327.676 C 167.360 328.417,167.414 328.564,167.354 323.450 L 167.300 318.900 164.088 318.845 C 162.322 318.815,160.814 318.853,160.738 318.929 M220.200 331.995 L 220.200 345.200 223.200 345.200 L 226.200 345.200 226.200 339.590 C 226.200 332.734,226.447 332.000,228.758 332.000 C 231.098 332.000,231.400 332.900,231.400 339.873 L 231.400 345.200 234.417 345.200 L 237.435 345.200 237.350 339.050 C 237.242 331.301,236.970 330.144,234.724 327.898 C 232.890 326.064,229.838 325.601,227.478 326.797 C 226.830 327.126,226.279 327.396,226.254 327.397 C 226.229 327.399,226.184 325.488,226.154 323.150 L 226.100 318.900 223.150 318.845 L 220.200 318.789 220.200 331.995 M192.239 331.050 L 192.303 340.100 192.820 341.200 C 194.152 344.034,196.500 345.188,200.950 345.197 L 202.800 345.200 202.800 342.421 C 202.800 339.193,202.957 339.400,200.515 339.400 C 198.157 339.400,198.200 339.475,198.200 335.334 L 198.200 332.000 200.506 332.000 L 202.811 332.000 202.756 329.250 L 202.700 326.500 200.450 326.443 L 198.200 326.387 198.200 324.193 L 198.200 322.000 195.187 322.000 L 192.174 322.000 192.239 331.050 M137.730 325.701 C 141.916 327.564,142.922 333.719,139.576 336.992 C 135.308 341.167,128.545 338.051,128.545 331.910 C 128.545 326.860,133.225 323.696,137.730 325.701 M246.296 326.563 C 239.386 328.880,237.344 337.552,242.496 342.704 C 247.332 347.540,255.357 345.836,258.687 339.266 C 259.289 338.079,259.389 338.204,256.873 337.005 C 254.423 335.838,254.528 335.860,254.248 336.475 C 253.018 339.173,249.326 340.517,247.258 339.019 C 244.001 336.660,245.227 331.275,249.074 331.042 C 251.586 330.889,251.569 331.128,248.937 332.983 C 246.219 334.898,246.310 334.640,247.650 336.632 C 248.894 338.480,248.650 338.422,250.337 337.265 C 251.087 336.751,253.072 335.395,254.750 334.252 C 258.241 331.872,258.037 332.201,256.990 330.632 C 254.530 326.948,250.135 325.276,246.296 326.563 M266.445 326.583 C 263.788 327.567,262.311 329.163,261.250 332.200 C 260.999 332.918,260.918 334.324,260.852 339.150 L 260.769 345.200 263.785 345.200 L 266.800 345.200 266.800 339.694 C 266.800 332.881,267.090 331.999,269.331 332.001 C 271.703 332.003,272.000 332.863,272.000 339.724 L 272.000 345.200 275.000 345.200 L 278.000 345.200 277.998 340.250 C 277.996 332.395,277.676 330.920,275.489 328.680 C 273.318 326.456,269.304 325.525,266.445 326.583 M151.094 326.645 C 151.040 326.785,151.019 330.995,151.048 336.000 L 151.100 345.100 154.152 345.155 L 157.204 345.210 157.152 335.855 L 157.100 326.500 154.146 326.445 C 151.893 326.402,151.168 326.450,151.094 326.645 M183.000 335.800 L 183.000 345.200 186.000 345.200 L 189.000 345.200 189.000 335.800 L 189.000 326.400 186.000 326.400 L 183.000 326.400 183.000 335.800 M212.700 326.731 C 211.157 327.007,208.735 328.036,208.078 328.694 C 207.914 328.857,207.626 329.106,207.436 329.246 C 205.446 330.718,204.271 334.305,204.782 337.348 C 205.587 342.138,209.250 344.865,215.250 345.140 L 217.800 345.257 217.800 342.359 L 217.800 339.460 215.765 339.336 C 212.220 339.120,210.624 337.899,210.848 335.573 C 211.052 333.445,212.337 332.572,215.500 332.412 L 217.700 332.300 217.755 329.350 L 217.811 326.400 216.055 326.422 C 215.090 326.434,213.580 326.573,212.700 326.731 " stroke="none" fill="#fff" fill-rule="evenodd"></path><path id="path2" d="M153.087 61.650 L 152.500 62.300 153.150 61.713 C 153.508 61.390,153.800 61.097,153.800 61.063 C 153.800 60.908,153.635 61.044,153.087 61.650 M107.887 76.450 L 107.300 77.100 107.950 76.513 C 108.308 76.190,108.600 75.897,108.600 75.863 C 108.600 75.708,108.435 75.844,107.887 76.450 M104.487 79.850 L 103.900 80.500 104.550 79.913 C 104.908 79.590,105.200 79.297,105.200 79.263 C 105.200 79.108,105.035 79.244,104.487 79.850 M162.087 155.050 L 161.500 155.700 162.150 155.113 C 162.756 154.565,162.892 154.400,162.737 154.400 C 162.703 154.400,162.410 154.692,162.087 155.050 M159.687 157.450 L 159.100 158.100 159.750 157.513 C 160.108 157.190,160.400 156.897,160.400 156.863 C 160.400 156.708,160.235 156.844,159.687 157.450 M154.446 197.200 C 154.446 197.585,154.488 197.743,154.538 197.550 C 154.588 197.358,154.588 197.043,154.538 196.850 C 154.488 196.658,154.446 196.815,154.446 197.200 M154.250 207.300 C 154.253 207.740,154.294 207.896,154.341 207.648 C 154.389 207.399,154.387 207.039,154.337 206.848 C 154.287 206.656,154.248 206.860,154.250 207.300 " stroke="none" fill="#fff" fill-rule="evenodd"></path><path id="path3" d="M194.050 41.738 C 194.243 41.788,194.558 41.788,194.750 41.738 C 194.942 41.688,194.785 41.646,194.400 41.646 C 194.015 41.646,193.858 41.688,194.050 41.738 M154.794 59.750 L 153.500 61.100 154.850 59.806 C 155.593 59.094,156.200 58.486,156.200 58.456 C 156.200 58.309,155.996 58.496,154.794 59.750 M106.094 78.050 L 104.900 79.300 106.150 78.106 C 106.838 77.450,107.400 76.887,107.400 76.856 C 107.400 76.708,107.203 76.889,106.094 78.050 M89.666 114.500 C 89.667 115.270,89.703 115.560,89.746 115.146 C 89.789 114.731,89.789 114.101,89.744 113.746 C 89.700 113.390,89.665 113.730,89.666 114.500 M89.667 118.200 C 89.667 119.025,89.703 119.363,89.746 118.950 C 89.789 118.538,89.789 117.863,89.746 117.450 C 89.703 117.038,89.667 117.375,89.667 118.200 M161.151 140.733 C 161.289 140.789,161.343 140.939,161.269 141.067 C 161.196 141.195,161.213 141.230,161.308 141.144 C 161.402 141.058,162.294 141.778,163.290 142.744 L 165.100 144.500 163.204 142.550 C 162.161 141.477,161.216 140.607,161.104 140.616 C 160.992 140.624,161.013 140.677,161.151 140.733 M197.346 158.144 C 197.701 158.189,198.331 158.189,198.746 158.146 C 199.160 158.103,198.870 158.067,198.100 158.066 C 197.330 158.065,196.990 158.100,197.346 158.144 M201.350 158.145 C 201.708 158.189,202.293 158.189,202.650 158.145 C 203.008 158.100,202.715 158.064,202.000 158.064 C 201.285 158.064,200.993 158.100,201.350 158.145 M154.472 200.400 C 154.472 201.445,154.506 201.873,154.547 201.350 C 154.588 200.828,154.588 199.972,154.547 199.450 C 154.506 198.928,154.472 199.355,154.472 200.400 M197.550 207.341 C 197.798 207.389,198.203 207.389,198.450 207.341 C 198.697 207.293,198.495 207.254,198.000 207.254 C 197.505 207.254,197.303 207.293,197.550 207.341 " stroke="none" fill="#fff" fill-rule="evenodd"></path><path id="path4" d="M199.752 158.141 C 200.001 158.189,200.361 158.187,200.552 158.137 C 200.744 158.087,200.540 158.048,200.100 158.050 C 199.660 158.053,199.504 158.094,199.752 158.141 " stroke="none" fill="#fff" fill-rule="evenodd"></path></g></svg>