<?xml version="1.0" encoding="UTF-8" standalone="no"?> <svg width="512" height="512" viewBox="0 0 512 512" fill="none" xmlns="http://www.w3.org/2000/svg">
<path d="M184 104C181.878 104 179.843 103.157 178.343 101.657C176.843 100.156 176 98.1214 176 95.9997C175.989 83.9859 179.545 72.2393 186.219 62.2497L193.344 51.5617C194.526 49.8088 196.354 48.5953 198.429 48.1863C200.503 47.7773 202.655 48.2061 204.414 49.3791C206.174 50.552 207.397 52.3737 207.817 54.4459C208.237 56.5181 207.82 58.6723 206.656 60.4377L199.531 71.1247C194.612 78.4874 191.991 87.1451 192 95.9997C192 98.1214 191.157 100.156 189.657 101.657C188.157 103.157 186.122 104 184 104Z" fill="#029532"/>
<path d="M424.919 248H87.0808C77.9058 248 68.9413 245.251 61.3437 240.107C53.7462 234.963 47.8643 227.661 44.4568 219.142V219.142C41.5958 211.99 41.5958 204.01 44.4568 196.858V196.858C47.8643 188.339 53.7462 181.037 61.3437 175.893C68.9413 170.749 77.9058 168 87.0808 168H424.919C434.094 168 443.058 170.749 450.656 175.893C458.254 181.037 464.135 188.339 467.543 196.858V196.858C470.404 204.01 470.404 211.99 467.543 219.142C464.135 227.661 458.254 234.963 450.656 240.107C443.058 245.251 434.094 248 424.919 248V248Z" fill="#F6BB92"/>
<path d="M424.919 328H87.0808C77.9058 328 68.9413 325.251 61.3437 320.107C53.7462 314.963 47.8643 307.661 44.4568 299.142V299.142C41.5958 291.99 41.5958 284.01 44.4568 276.858V276.858C47.8643 268.339 53.7462 261.037 61.3437 255.893C68.9413 250.749 77.9058 248 87.0808 248H424.919C434.094 248 443.058 250.749 450.656 255.893C458.254 261.037 464.135 268.339 467.543 276.858C470.404 284.01 470.404 291.99 467.543 299.142C464.135 307.661 458.254 314.963 450.656 320.107C443.058 325.251 434.094 328 424.919 328Z" fill="#E6AF89"/>
<path d="M469.68 288C469.68 289.338 469.59 290.674 469.41 292H464C434.28 292 434.28 284 404.57 284C374.86 284 374.85 292 345.14 292C315.43 292 315.42 284 285.71 284C256 284 255.99 292 226.28 292C196.57 292 196.57 284 166.85 284C137.13 284 137.14 292 107.43 292C77.7198 292 77.7098 284 47.9998 284H42.5898C42.9153 281.552 43.5435 279.153 44.4598 276.86C47.8629 268.339 53.7432 261.034 61.3408 255.889C68.9384 250.745 77.9042 247.996 87.0798 248H424.92C434.095 248 443.059 250.749 450.656 255.894C458.253 261.038 464.134 268.341 467.54 276.86C468.955 280.404 469.681 284.184 469.68 288Z" fill="#FDC9A6"/>
<path d="M470.678 208C470.678 209.338 470.588 210.674 470.408 212H465C435.28 212 435.28 204 405.57 204C375.86 204 375.85 212 346.14 212C316.43 212 316.42 204 286.71 204C257 204 256.99 212 227.28 212C197.57 212 197.57 204 167.85 204C138.13 204 138.14 212 108.43 212C78.7198 212 78.7098 204 48.9998 204H43.5898C43.9153 201.552 44.5435 199.153 45.4598 196.86C48.8628 188.339 54.7427 181.034 62.34 175.89C69.9372 170.745 78.9026 167.997 88.0778 168H425.918C435.093 168 444.057 170.749 451.654 175.894C459.251 181.038 465.132 188.341 468.538 196.86C469.953 200.404 470.679 204.184 470.678 208V208Z" fill="#FDC9A6"/>
<path d="M424.919 408H87.0808C77.9058 408 68.9413 405.251 61.3437 400.107C53.7462 394.963 47.8643 387.661 44.4568 379.142V379.142C41.5958 371.99 41.5958 364.01 44.4568 356.858V356.858C47.8643 348.339 53.7462 341.037 61.3437 335.893C68.9413 330.749 77.9058 328 87.0808 328H424.919C434.094 328 443.058 330.749 450.656 335.893C458.254 341.037 464.135 348.339 467.543 356.858V356.858C470.404 364.01 470.404 371.99 467.543 379.142C464.135 387.661 458.254 394.963 450.656 400.107C443.058 405.251 434.094 408 424.919 408Z" fill="#E6AF89"/>
<path d="M469.68 368C469.682 369.372 469.588 370.741 469.4 372.1L464 372C434.28 372 434.28 364 404.57 364C374.86 364 374.85 372 345.14 372C315.43 372 315.42 364 285.71 364C256 364 255.99 372 226.28 372C196.57 372 196.57 364 166.85 364C137.13 364 137.14 372 107.43 372C77.7198 372 77.7098 364 47.9998 364H42.5898C42.9153 361.552 43.5435 359.153 44.4598 356.86C47.8629 348.339 53.7432 341.034 61.3408 335.889C68.9384 330.745 77.9042 327.996 87.0798 328H424.92C434.095 328 443.059 330.749 450.656 335.894C458.253 341.038 464.134 348.341 467.54 356.86C468.955 360.404 469.681 364.184 469.68 368Z" fill="#FDC9A6"/>
<path d="M336 176C349.255 176 360 165.255 360 152C360 138.745 349.255 128 336 128C322.745 128 312 138.745 312 152C312 165.255 322.745 176 336 176Z" fill="#EA2B2D"/>
<path d="M296 168C309.255 168 320 157.255 320 144C320 130.745 309.255 120 296 120C282.745 120 272 130.745 272 144C272 157.255 282.745 168 296 168Z" fill="#5B89B9"/>
<path d="M224 56L240 88H272L288 56H272L256 32L240 56H224Z" fill="#02A437"/>
<path d="M224 280C228.418 280 232 276.418 232 272C232 267.582 228.418 264 224 264C219.582 264 216 267.582 216 272C216 276.418 219.582 280 224 280Z" fill="black"/>
<path d="M267 275C271.418 275 275 271.418 275 267C275 262.582 271.418 259 267 259C262.582 259 259 262.582 259 267C259 271.418 262.582 275 267 275Z" fill="#D6A27F"/>
<path d="M440 212C444.418 212 448 208.418 448 204C448 199.582 444.418 196 440 196C435.582 196 432 199.582 432 204C432 208.418 435.582 212 440 212Z" fill="#D6A27F"/>
<path d="M88 212C92.4183 212 96 208.418 96 204C96 199.582 92.4183 196 88 196C83.5817 196 80 199.582 80 204C80 208.418 83.5817 212 88 212Z" fill="#D6A27F"/>
<path d="M368 272C372.418 272 376 268.418 376 264C376 259.582 372.418 256 368 256C363.582 256 360 259.582 360 264C360 268.418 363.582 272 368 272Z" fill="#D6A27F"/>
<path d="M104 360C108.418 360 112 356.418 112 352C112 347.582 108.418 344 104 344C99.5817 344 96 347.582 96 352C96 356.418 99.5817 360 104 360Z" fill="#D6A27F"/>
<path d="M152 344C156.418 344 160 340.418 160 336C160 331.582 156.418 328 152 328C147.582 328 144 331.582 144 336C144 340.418 147.582 344 152 344Z" fill="#D6A27F"/>
<path d="M224 360C228.418 360 232 356.418 232 352C232 347.582 228.418 344 224 344C219.582 344 216 347.582 216 352C216 356.418 219.582 360 224 360Z" fill="#D6A27F"/>
<path d="M272 344C276.418 344 280 340.418 280 336C280 331.582 276.418 328 272 328C267.582 328 264 331.582 264 336C264 340.418 267.582 344 272 344Z" fill="#D6A27F"/>
<path d="M336 360C340.418 360 344 356.418 344 352C344 347.582 340.418 344 336 344C331.582 344 328 347.582 328 352C328 356.418 331.582 360 336 360Z" fill="#D6A27F"/>
<path d="M384 344C388.418 344 392 340.418 392 336C392 331.582 388.418 328 384 328C379.582 328 376 331.582 376 336C376 340.418 379.582 344 384 344Z" fill="#D6A27F"/>
<path d="M290.219 95.328C287.076 90.613 282.817 86.7469 277.82 84.073C272.824 81.3991 267.245 80 261.578 80H250.422C244.755 80 239.176 81.3991 234.18 84.073C229.183 86.7469 224.924 90.613 221.781 95.328V95.328C218.012 100.983 216 107.626 216 114.422V114.422C216 128.428 220.543 142.057 228.947 153.262L240 168H272L283.053 153.262C291.457 142.057 296 128.428 296 114.422V114.422C296 107.626 293.988 100.983 290.219 95.328V95.328Z" fill="#EA2B2D"/>
<path d="M256 120C253.878 120 251.843 119.157 250.343 117.657C248.843 116.157 248 114.122 248 112V104C248 101.878 248.843 99.8434 250.343 98.3431C251.843 96.8429 253.878 96 256 96C258.122 96 260.157 96.8429 261.657 98.3431C263.157 99.8434 264 101.878 264 104V112C264 114.122 263.157 116.157 261.657 117.657C260.157 119.157 258.122 120 256 120Z" fill="#CB2527"/>
<path d="M240 144C237.878 144 235.843 143.157 234.343 141.657C232.843 140.157 232 138.122 232 136V128C232 125.878 232.843 123.843 234.343 122.343C235.843 120.843 237.878 120 240 120C242.122 120 244.157 120.843 245.657 122.343C247.157 123.843 248 125.878 248 128V136C248 138.122 247.157 140.157 245.657 141.657C244.157 143.157 242.122 144 240 144Z" fill="#CB2527"/>
<path d="M272 144C269.878 144 267.843 143.157 266.343 141.657C264.843 140.157 264 138.122 264 136V128C264 125.878 264.843 123.843 266.343 122.343C267.843 120.843 269.878 120 272 120C274.122 120 276.157 120.843 277.657 122.343C279.157 123.843 280 125.878 280 128V136C280 138.122 279.157 140.157 277.657 141.657C276.157 143.157 274.122 144 272 144Z" fill="#CB2527"/>
<path d="M184 160C201.673 160 216 145.673 216 128C216 110.327 201.673 96 184 96C166.327 96 152 110.327 152 128C152 145.673 166.327 160 184 160Z" fill="#B22122"/>
<path d="M392 432C405.255 432 416 421.255 416 408C416 394.745 405.255 384 392 384C378.745 384 368 394.745 368 408C368 421.255 378.745 432 392 432Z" fill="#5B89B9"/>
<path d="M442.556 418.888C458.817 418.888 472 405.705 472 389.444C472 373.183 458.817 360 442.556 360C426.294 360 413.112 373.183 413.112 389.444C413.112 405.705 426.294 418.888 442.556 418.888Z" fill="#EA2B2D"/>
<path d="M24 408H488V416C488 423.354 486.552 430.636 483.737 437.43C480.923 444.225 476.798 450.398 471.598 455.598C466.398 460.798 460.225 464.923 453.43 467.737C446.636 470.552 439.354 472 432 472H80C65.1479 472 50.9041 466.1 40.402 455.598C29.9 445.096 24 430.852 24 416V408Z" fill="#DCDBD6"/>
<path d="M96 448H80C77.8783 448 75.8434 447.157 74.3431 445.657C72.8429 444.157 72 442.122 72 440C72 437.878 72.8429 435.843 74.3431 434.343C75.8434 432.843 77.8783 432 80 432H96C98.1217 432 100.157 432.843 101.657 434.343C103.157 435.843 104 437.878 104 440C104 442.122 103.157 444.157 101.657 445.657C100.157 447.157 98.1217 448 96 448Z" fill="#EAE9E4"/>
<path d="M184 448H128C125.878 448 123.843 447.157 122.343 445.657C120.843 444.157 120 442.122 120 440C120 437.878 120.843 435.843 122.343 434.343C123.843 432.843 125.878 432 128 432H184C186.122 432 188.157 432.843 189.657 434.343C191.157 435.843 192 437.878 192 440C192 442.122 191.157 444.157 189.657 445.657C188.157 447.157 186.122 448 184 448Z" fill="#EAE9E4"/>
<path d="M376.111 168H240V162.177C240 157.356 238.085 152.733 234.676 149.324C231.267 145.915 226.644 144 221.823 144H154.177C149.356 144 144.733 145.915 141.324 149.324C137.915 152.733 136 157.356 136 162.177V169.021C125.272 171.286 115.652 177.178 108.759 185.705C101.866 194.232 98.1214 204.874 98.155 215.838L98.18 252.69C98.18 266.15 109.19 277.48 122.64 277.23C128.924 277.107 134.91 274.524 139.311 270.037C143.712 265.55 146.179 259.516 146.18 253.23V245.69C146.18 237.07 152.8 229.66 161.4 229.25C163.564 229.145 165.727 229.481 167.757 230.237C169.787 230.993 171.643 232.153 173.212 233.647C174.781 235.141 176.03 236.938 176.884 238.929C177.738 240.92 178.179 243.064 178.18 245.23V308.591C178.18 326.091 191.954 340.83 209.445 341.222C213.708 341.321 217.948 340.567 221.916 339.003C225.884 337.44 229.499 335.099 232.549 332.119C235.599 329.138 238.022 325.578 239.676 321.647C241.33 317.716 242.181 313.495 242.18 309.23V222.31C242.182 216.274 244.564 210.482 248.811 206.193C253.057 201.903 258.824 199.462 264.86 199.4H265.08C271.157 199.399 276.986 201.812 281.285 206.108C285.583 210.405 287.998 216.233 288 222.31V352C288 365.46 299.01 376.79 312.46 376.54C318.744 376.417 324.73 373.834 329.131 369.347C333.532 364.86 335.999 358.826 336 352.54V239.86C336 231.25 342.62 223.83 351.23 223.43C353.393 223.326 355.555 223.662 357.585 224.418C359.615 225.174 361.47 226.334 363.038 227.828C364.606 229.322 365.854 231.119 366.707 233.11C367.56 235.101 368 237.244 368 239.41C368 245.696 370.466 251.731 374.868 256.218C379.269 260.706 385.255 263.288 391.54 263.41C396.438 263.443 401.231 261.987 405.283 259.235C409.335 256.483 412.455 252.565 414.23 248C415.399 245.098 415.999 241.999 416 238.87V223.41L416.11 208.291C416.148 203.014 415.142 197.781 413.149 192.895C411.156 188.008 408.216 183.564 404.498 179.819C400.78 176.074 396.358 173.101 391.486 171.073C386.614 169.044 381.388 168 376.111 168Z" fill="#EE9D0D"/>
<path d="M248 176H216C213.878 176 211.843 175.157 210.343 173.657C208.843 172.157 208 170.122 208 168C208 165.878 208.843 163.843 210.343 162.343C211.843 160.843 213.878 160 216 160H248C250.122 160 252.157 160.843 253.657 162.343C255.157 163.843 256 165.878 256 168C256 170.122 255.157 172.157 253.657 173.657C252.157 175.157 250.122 176 248 176Z" fill="#EEB436"/>
<path d="M184 176H176C173.878 176 171.843 175.157 170.343 173.657C168.843 172.157 168 170.122 168 168C168 165.878 168.843 163.843 170.343 162.343C171.843 160.843 173.878 160 176 160H184C186.122 160 188.157 160.843 189.657 162.343C191.157 163.843 192 165.878 192 168C192 170.122 191.157 172.157 189.657 173.657C188.157 175.157 186.122 176 184 176Z" fill="#EEB436"/>
</svg>
